<?xml version="1.0" encoding="UTF-8" standalone="no"?>
<!DOCTYPE svg PUBLIC "-//W3C//DTD SVG 1.1//EN" "http://www.w3.org/Graphics/SVG/1.1/DTD/svg11.dtd">
<svg xmlns="http://www.w3.org/2000/svg">
<metadata/>
<defs>
<font id="sukhumvitregular" horiz-adv-x="484">
<font-face units-per-em="1000" ascent="800" descent="-200"/>
<missing-glyph horiz-adv-x="288"/>
<glyph unicode="ฯฯ" horiz-adv-x="687" d="M643 0h-85v381q-34 -70 -120 -77v-304h-85v381q-37 -77 -135 -77q-83 0 -131 46q-47 45 -47 120v41h83v-34q0 -48 29 -77q30 -29 79 -29q53 0 89 38t36 90v12h82v-140q52 1 88 39q35 37 35 89v12h82v-511z"/>
<glyph unicode="๏&quot;" horiz-adv-x="520" d="M225 436h-62v173h62v-173zM370 436h-61v173h61v-173zM263 6q40 0 75.5 15.5t61.5 41.5t41.5 61.5t15.5 75.5t-15.5 75.5t-41.5 61.5t-61.5 41.5t-75.5 15.5t-75.5 -15.5t-61.5 -41.5t-41.5 -61.5t-15.5 -75.5t15.5 -75.5t41.5 -61.5t61.5 -41.5t75.5 -15.5zM427 200 q0 -34 -13 -64t-35 -52t-52 -35t-64 -13t-64 13t-52 35t-35 52t-13 64t13 64t35 52t52 35t64 13t64 -13t52 -35t35 -52t13 -64zM263 87q23 0 43.5 9t36 24t24.5 35.5t9 44.5q0 23 -9 43.5t-24.5 36t-36 24.5t-43.5 9q-24 0 -44.5 -9t-35.5 -24.5t-24 -36t-9 -43.5 q0 -24 9 -44.5t24 -35.5t35.5 -24t44.5 -9zM347 200q0 -35 -25 -59.5t-59 -24.5q-35 0 -59.5 24.5t-24.5 59.5q0 34 24.5 59t59.5 25q34 0 59 -25t25 -59z"/>
<glyph unicode="ฤา" horiz-adv-x="870" d="M826 -200h-85v533q0 118 -110 118q-89 0 -152 -66q6 -21 6 -45v-540h-85v533q0 57 -34 90q-33 32 -92 32q-104 0 -147 -79l56 -67q-38 -25 -38 -79v-144q0 -19 18 -19h36v-67h-68q-31 0 -51 23q-20 22 -20 56v138q0 65 40 92l-57 67q19 59 81 101q67 45 149 45 q92 0 152 -52q14 -13 25 -27q82 79 189 79q88 0 137 -52q50 -52 50 -144v-526z"/>
<glyph unicode="ฦา" horiz-adv-x="880" d="M836 -200h-85v533q0 118 -110 118q-87 0 -150 -63q8 -24 8 -51v-537h-85v533q0 57 -36 90q-35 32 -94 32q-98 0 -141 -79l56 -67q-38 -25 -38 -79v-156q0 -31 -20 -53q-19 -21 -48 -21h-66v67h31q18 0 18 19v131q0 65 39 92l-57 67q19 60 79 101q65 45 147 45 q92 0 154 -53q13 -12 23 -25q81 78 188 78q88 0 137 -52q50 -52 50 -144v-526z"/>
<glyph unicode="fi" horiz-adv-x="580" d="M204 0h-81v378h-105v66h105v41q0 89 29 130q34 48 119 48q12 0 29 -2q21 -3 26 -3l-3 -66q-15 5 -39 5q-48 0 -66 -30q-14 -23 -14 -75v-48h118v-66h-118v-378zM505 543h-92v92h92v-92zM500 0h-82v444h82v-444z"/>
<glyph unicode="fl" horiz-adv-x="580" d="M204 0h-81v378h-105v66h105v41q0 89 29 130q34 48 119 48q12 0 29 -2q21 -3 26 -3l-3 -66q-15 5 -39 5q-48 0 -66 -30q-14 -23 -14 -75v-48h118v-66h-118v-378zM500 0h-82v653h82v-653z"/>
<glyph unicode="" horiz-adv-x="195"/>
<glyph unicode=" " horiz-adv-x="288"/>
<glyph unicode="	" horiz-adv-x="288"/>
<glyph unicode=" " horiz-adv-x="288"/>
<glyph unicode="!" horiz-adv-x="338" d="M218 0h-97v97h97v-97zM207 171h-75l-11 436h97z"/>
<glyph unicode="&quot;" d="M215 394h-77v213h77v-213zM345 394h-76v213h76v-213z"/>
<glyph unicode="#" d="M285 247l16 113h-103l-15 -113h102zM317 0h-66l25 181h-103l-25 -181h-66l25 181h-83v66h93l15 113h-83v66h93l25 181h66l-25 -181h103l25 181h66l-25 -181h82v-66h-92l-16 -113h83v-66h-92z"/>
<glyph unicode="$" d="M265 -92h-50v82h-11q-68 0 -132 25l11 83q45 -32 120 -32h12v212l-30 14q-120 56 -120 160q0 64 44 109q41 43 106 53v87h50v-83q63 -1 125 -22l-12 -80q-43 25 -104 25h-9v-189l51 -27q102 -54 102 -155q0 -71 -41 -118q-42 -47 -112 -57v-87zM265 76q61 18 61 88 q0 55 -61 88v-176zM215 534q-58 -20 -58 -79q0 -38 58 -77v156z"/>
<glyph unicode="%" horiz-adv-x="870" d="M226 331q54 0 54 113t-54 113t-54 -113t54 -113zM278 -19h-63l377 645h62zM356 444q0 -174 -130 -174t-130 174t130 174t130 -174zM644 51q54 0 54 113t-54 113t-54 -113t54 -113zM774 164q0 -174 -130 -174t-130 174t130 174t130 -174z"/>
<glyph unicode="&amp;" horiz-adv-x="628" d="M227 473q0 -46 54 -102q91 40 91 106q0 75 -72 75q-31 0 -51 -20q-22 -21 -22 -59zM250 285q-86 -58 -86 -120q0 -49 36 -80q35 -29 84 -29q62 0 112 58zM600 0h-108l-50 59q-62 -69 -174 -69q-90 0 -143 46t-53 123q0 121 136 178q-63 77 -63 138q0 70 47 108 q43 35 112 35q64 0 105 -33q45 -37 45 -105q0 -102 -133 -158l124 -141q31 51 37 147h82q-9 -116 -70 -208z"/>
<glyph unicode="'" horiz-adv-x="242" d="M159 394h-76v213h76v-213z"/>
<glyph unicode="(" horiz-adv-x="290" d="M199 -122q-142 220 -142 390q0 166 142 390h79q-134 -233 -134 -390q0 -165 134 -390h-79z"/>
<glyph unicode=")" horiz-adv-x="290" d="M12 -122q134 242 134 390q0 157 -134 390h78q143 -214 143 -390q0 -175 -143 -390h-78z"/>
<glyph unicode="*" d="M378 313l-66 -43l-70 120l-71 -120l-65 43l96 107l-139 29l24 74l131 -54l-14 138h80l-13 -138l127 54l23 -74l-137 -29z"/>
<glyph unicode="+" horiz-adv-x="522" d="M481 182h-182v-182h-76v182h-182v76h182v182h76v-182h182v-76z"/>
<glyph unicode="," horiz-adv-x="242" d="M96 -116h-79l55 213h98z"/>
<glyph unicode="-" horiz-adv-x="290" d="M257 201h-224v66h224v-66z"/>
<glyph unicode="." horiz-adv-x="242" d="M170 0h-98v97h98v-97z"/>
<glyph unicode="/" horiz-adv-x="242" d="M55 -10h-77l209 628h77z"/>
<glyph unicode="0" d="M356 304q0 87 -19 150q-30 92 -95 92q-66 0 -95 -92q-19 -62 -19 -150q0 -243 114 -243t114 243zM408 97q-53 -107 -166 -107q-114 0 -166 107q-40 80 -40 207q0 126 40 207q52 107 166 107q113 0 166 -107q40 -81 40 -207t-40 -207z"/>
<glyph unicode="1" d="M321 0h-87v507l-93 -80l-46 58l149 122h77v-607z"/>
<glyph unicode="2" d="M428 0h-384v93q87 78 110 100q173 164 173 257q0 42 -34 69q-33 27 -82 27q-68 0 -140 -39l-8 75q80 36 159 36q85 0 139 -44q58 -47 58 -129q0 -90 -106 -208q-34 -38 -176 -166h291v-71z"/>
<glyph unicode="3" d="M287 312q136 -27 136 -150q0 -172 -239 -172q-65 0 -140 23l6 81q64 -33 133 -33q58 0 98 23q50 27 50 80q0 116 -152 116h-53v71h49q57 0 98 22q52 26 52 78q0 95 -119 95q-71 0 -135 -33l-5 78q74 27 152 27q87 0 140 -39q60 -45 60 -127q0 -54 -40 -93 q-36 -35 -91 -45v-2z"/>
<glyph unicode="4" d="M386 0h-87v138h-282v72l245 397h124v-397h77v-72h-77v-138zM299 210v326l-191 -326h191z"/>
<glyph unicode="5" d="M73 91q56 -30 126 -30q58 0 98 31q44 34 44 89q0 62 -43 97q-40 33 -104 33q-60 0 -117 -23l5 319h334v-71h-252l-6 -163q31 9 79 9q81 0 138 -53q58 -55 58 -135q0 -96 -69 -152q-64 -52 -163 -52q-80 0 -131 20z"/>
<glyph unicode="6" d="M244 61q52 0 81 39q27 36 27 89q0 47 -25 82q-28 40 -76 40q-53 0 -84 -36q-30 -34 -30 -86q0 -49 27 -86q30 -42 80 -42zM405 521q-47 25 -108 25q-81 0 -127 -67q-41 -59 -43 -154l2 1q55 56 133 56q85 0 135 -55q48 -53 48 -136q0 -92 -56 -148q-54 -53 -139 -53 q-205 0 -205 291q0 144 51 230q63 107 195 107q74 0 126 -19z"/>
<glyph unicode="7" d="M203 0h-96l231 536h-295v71h384v-71z"/>
<glyph unicode="8" d="M135 460q0 -50 125 -110q80 62 80 120q0 39 -35 59q-28 17 -67 17q-36 0 -66 -21q-37 -25 -37 -65zM190 263q-22 -14 -33 -24q-32 -29 -32 -75q0 -47 39 -76q35 -27 84 -27q47 0 77 24q32 27 33 72q0 56 -41 86q-3 2 -91 44zM162 321q-114 38 -114 151q0 60 52 102 q55 44 144 44q86 0 139 -43q49 -40 49 -94q0 -98 -109 -156q128 -47 128 -161q0 -87 -63 -133q-56 -41 -148 -41q-83 0 -142 43q-65 47 -65 126q0 116 129 160v2z"/>
<glyph unicode="9" d="M131 418q0 -47 26 -81q28 -40 76 -40q53 0 84 35q29 34 29 86q0 49 -26 86q-31 42 -81 42q-53 0 -82 -39q-26 -35 -26 -89zM355 281q-56 -56 -133 -56q-85 0 -135 56q-48 52 -48 136q0 92 56 148q54 53 139 53q204 0 204 -292q0 -143 -51 -229q-62 -107 -195 -107 q-85 0 -125 19l12 77q47 -25 108 -25q80 0 126 67q42 60 44 154z"/>
<glyph unicode=":" horiz-adv-x="242" d="M170 0h-98v97h98v-97zM170 346h-98v98h98v-98z"/>
<glyph unicode=";" horiz-adv-x="242" d="M170 346h-98v98h98v-98zM96 -116h-79l55 213h98z"/>
<glyph unicode="&lt;" horiz-adv-x="522" d="M482 -7l-442 194v66l442 194v-76l-343 -151l343 -150v-77z"/>
<glyph unicode="=" horiz-adv-x="522" d="M481 90h-440v77h440v-77zM481 273h-440v77h440v-77z"/>
<glyph unicode="&gt;" horiz-adv-x="522" d="M482 187l-442 -194v77l343 150l-343 151v76l442 -194v-66z"/>
<glyph unicode="?" horiz-adv-x="435" d="M267 0h-97v97h97v-97zM259 171h-82v18q0 66 54 129q74 86 74 135q0 43 -32 67q-29 21 -74 21q-81 0 -129 -35l-6 83q71 29 145 29q76 0 129 -40q59 -44 59 -119q0 -55 -42 -112q-10 -13 -39 -48q-25 -30 -38 -49q-19 -28 -19 -64v-15z"/>
<glyph unicode="@" horiz-adv-x="696" d="M625 128q-90 -138 -259 -138q-140 0 -228 82q-94 86 -94 232q0 139 94 228q90 86 224 86q118 0 203 -72q88 -75 88 -187q0 -111 -79 -183q-64 -59 -128 -59q-45 0 -50 49h-2q-47 -49 -95 -49q-54 0 -91 41t-37 99q0 86 50 150q54 68 137 68q63 0 99 -57l13 45h65 l-58 -221q-7 -23 -7 -37q2 -21 15 -21q39 0 72 48q35 50 35 114q0 98 -68 157q-64 54 -163 54q-109 0 -178 -74q-68 -73 -68 -181q0 -120 72 -187q69 -65 183 -65q117 0 189 78h66zM318 189q47 0 81 48q31 44 31 94q0 31 -20 52q-19 21 -47 21q-49 0 -84 -46 q-32 -42 -32 -90q0 -36 19 -57q19 -22 52 -22z"/>
<glyph unicode="A" horiz-adv-x="628" d="M433 224l-121 301l-121 -301h242zM618 0h-95l-62 153h-297l-62 -153h-92l260 607h91z"/>
<glyph unicode="B" horiz-adv-x="532" d="M207 348q77 0 110 15q46 22 46 82q0 91 -112 91h-92v-188h48zM224 71q149 0 149 99q0 107 -157 107h-57v-206h65zM72 0v607h165q213 0 213 -153q0 -111 -125 -144v-2q63 -6 101 -44q39 -40 39 -102q0 -162 -231 -162h-162z"/>
<glyph unicode="C" horiz-adv-x="532" d="M505 11q-52 -21 -139 -21q-145 0 -232 86q-88 86 -88 230q0 140 91 227q90 85 230 85q77 0 137 -26l-7 -85q-58 34 -126 34q-104 0 -169 -67q-64 -67 -64 -170q0 -105 68 -173q65 -65 161 -65q85 0 132 30z"/>
<glyph unicode="D" horiz-adv-x="628" d="M251 77q232 0 232 228q0 103 -64 166q-62 60 -158 60h-102v-454h92zM72 0v607h179q140 0 230 -79q94 -82 94 -219q0 -151 -87 -231q-84 -78 -237 -78h-179z"/>
<glyph unicode="E" d="M422 0h-340v607h340v-76h-253v-178h230v-76h-230v-200h253v-77z"/>
<glyph unicode="F" horiz-adv-x="435" d="M159 0h-87v607h323v-76h-236v-178h226v-76h-226v-277z"/>
<glyph unicode="G" horiz-adv-x="628" d="M552 17q-79 -27 -186 -27q-145 0 -232 86q-88 86 -88 230q0 140 91 227q90 85 230 85q71 0 178 -31l-6 -88q-66 42 -168 42q-104 0 -169 -68q-64 -67 -64 -169q0 -105 68 -173q65 -65 161 -65q50 0 98 11v184h-128v71h215v-315z"/>
<glyph unicode="H" horiz-adv-x="628" d="M546 0h-87v277h-290v-277h-87v607h87v-254h290v254h87v-607z"/>
<glyph unicode="I" horiz-adv-x="242" d="M164 0h-87v607h87v-607z"/>
<glyph unicode="J" horiz-adv-x="338" d="M259 157q0 -167 -170 -167q-45 0 -71 10v75q26 -9 55 -9q56 0 80 32q19 27 19 86v423h87v-450z"/>
<glyph unicode="K" horiz-adv-x="580" d="M566 0h-127l-270 298v-298h-87v607h87v-267l259 267h116l-286 -287z"/>
<glyph unicode="L" horiz-adv-x="435" d="M418 0h-341v607h87v-530h254v-77z"/>
<glyph unicode="M" horiz-adv-x="821" d="M743 0h-87v525h-2l-201 -525h-85l-201 525h-2v-525h-87v607h144l190 -504l187 504h144v-607z"/>
<glyph unicode="N" horiz-adv-x="628" d="M552 0h-112l-275 499h-1v-499h-87v607h118l268 -489h2v489h87v-607z"/>
<glyph unicode="O" horiz-adv-x="677" d="M555 77q-79 -87 -217 -87q-137 0 -215 87q-77 85 -77 227q0 138 77 224q80 90 215 90q136 0 216 -90q77 -86 77 -224q0 -142 -76 -227zM338 66q98 0 153 73q48 65 48 165q0 99 -50 165q-55 72 -151 72q-95 0 -150 -72q-50 -66 -50 -165q0 -100 48 -165q54 -73 152 -73z "/>
<glyph unicode="P" d="M159 0h-87v607h159q228 0 228 -182q0 -94 -66 -141q-57 -41 -149 -41h-85v-243zM245 319q48 0 82 24q40 29 40 83q0 52 -47 81q-38 24 -87 24h-74v-212h86z"/>
<glyph unicode="Q" horiz-adv-x="677" d="M608 -112h-108l-113 105q-16 -3 -49 -3q-137 0 -215 87q-77 85 -77 227q0 138 77 224q80 90 215 90q136 0 216 -90q77 -86 77 -224q0 -218 -164 -288zM338 66q98 0 153 73q48 65 48 165q0 99 -50 165q-55 72 -151 72q-95 0 -150 -72q-50 -66 -50 -165q0 -100 48 -165 q54 -73 152 -73z"/>
<glyph unicode="R" horiz-adv-x="532" d="M233 346q132 0 132 95q0 90 -122 90h-84v-185h74zM505 0h-99l-93 211q-18 40 -42 52q-16 7 -60 7h-52v-270h-87v607h149q110 0 163 -28q73 -38 73 -136q0 -55 -36 -93q-35 -37 -90 -45v-2q35 -14 60 -61z"/>
<glyph unicode="S" horiz-adv-x="435" d="M57 96q65 -30 126 -30q44 0 78 23q41 28 41 76q0 45 -41 76q-18 14 -89 48q-63 30 -90 58q-41 42 -41 105q0 78 57 123q53 43 138 43q69 0 129 -22l-12 -80q-65 25 -114 25q-106 0 -106 -81q0 -38 41 -66q11 -8 90 -48q130 -66 130 -175q0 -93 -65 -140q-58 -41 -157 -41 q-47 0 -124 25z"/>
<glyph unicode="T" d="M285 0h-87v531h-188v76h464v-76h-189v-531z"/>
<glyph unicode="U" horiz-adv-x="628" d="M550 251q0 -128 -61 -195q-61 -66 -175 -66t-175 66q-61 67 -61 195v356h87v-344q0 -197 149 -197t149 197v344h87v-356z"/>
<glyph unicode="V" horiz-adv-x="580" d="M343 0h-109l-229 607h98l187 -530h1l193 530h91z"/>
<glyph unicode="W" horiz-adv-x="870" d="M681 0h-112l-132 531h-2l-133 -531h-117l-183 607h95l146 -520h1l130 520h124l131 -520h2l145 520h92z"/>
<glyph unicode="X" horiz-adv-x="580" d="M573 0h-109l-180 258l-173 -258h-104l224 316l-204 291h104l162 -233l161 233h99l-204 -289z"/>
<glyph unicode="Y" horiz-adv-x="580" d="M334 0h-87v254l-237 353h101l181 -272l177 272h102l-237 -353v-254z"/>
<glyph unicode="Z" d="M448 0h-420v78l315 453h-305v76h405v-78l-314 -452h319v-77z"/>
<glyph unicode="[" horiz-adv-x="290" d="M247 -122h-164v780h164v-61h-88v-658h88v-61z"/>
<glyph unicode="\" horiz-adv-x="242" d="M264 -10h-77l-209 628h77z"/>
<glyph unicode="]" horiz-adv-x="290" d="M207 -122h-164v61h88v658h-88v61h164v-780z"/>
<glyph unicode="^" horiz-adv-x="522" d="M470 256h-78l-131 271l-130 -271h-79l173 351h72z"/>
<glyph unicode="_" horiz-adv-x="435" d="M435 -109h-435v44h435v-44z"/>
<glyph unicode="`" horiz-adv-x="242" d="M178 505h-58l-114 126h95z"/>
<glyph unicode="a" d="M333 211l-52 2q-154 0 -154 -85q0 -33 27 -54q24 -18 56 -18q59 0 92 34q31 31 31 82v39zM342 0v57h-2q-45 -67 -137 -67q-163 0 -163 138q0 75 72 114q57 32 134 32h44q11 0 43 -2q0 60 -24 87q-26 29 -85 29q-76 0 -129 -45l-5 69q69 42 147 42q178 0 178 -183v-184 q0 -48 3 -87h-76z"/>
<glyph unicode="b" horiz-adv-x="532" d="M282 56q61 0 95 57q28 48 28 111q0 67 -28 111q-32 53 -94 53q-63 0 -99 -52q-33 -47 -33 -115q0 -64 31 -110q36 -55 100 -55zM148 0h-78v653h81v-270h2q44 71 147 71q92 0 144 -67q48 -62 48 -157q0 -102 -45 -166q-51 -74 -146 -74q-111 0 -151 73h-2v-63z"/>
<glyph unicode="c" horiz-adv-x="386" d="M362 8q-37 -18 -103 -18q-98 0 -163 68q-63 66 -63 164q0 102 62 167q63 65 164 65q56 0 99 -17l-7 -68q-49 19 -88 19q-65 0 -106 -51q-37 -48 -37 -115t35 -113q40 -53 113 -53q49 0 88 25z"/>
<glyph unicode="d" horiz-adv-x="532" d="M250 56q64 0 100 55q30 46 30 110q0 68 -32 115q-37 52 -99 52q-61 0 -94 -52q-28 -45 -28 -112q0 -62 29 -111q34 -57 94 -57zM462 0h-78v63h-2q-44 -73 -151 -73q-95 0 -146 74q-45 65 -45 166q0 95 48 157q52 67 143 67q103 0 147 -71h2v270h82v-653z"/>
<glyph unicode="e" d="M357 264q0 53 -29 88q-31 36 -82 36q-102 0 -119 -124h230zM410 18q-84 -28 -140 -28q-115 0 -174 66q-56 62 -56 174q0 99 57 161q58 63 151 63q196 0 196 -250h-317q0 -64 44 -107q43 -41 102 -41q77 0 137 44v-82z"/>
<glyph unicode="f" horiz-adv-x="338" d="M204 0h-81v378h-105v66h105v41q0 89 29 130q34 48 119 48q12 0 29 -2q21 -3 26 -3l-3 -66q-15 5 -39 5q-48 0 -66 -30q-14 -23 -14 -75v-48h118v-66h-118v-378z"/>
<glyph unicode="g" horiz-adv-x="532" d="M251 66q56 0 93 44q36 44 36 107q0 73 -32 120q-35 51 -97 51q-58 0 -93 -54q-31 -48 -31 -111q0 -65 33 -110q35 -47 91 -47zM462 19q0 -212 -229 -212q-69 0 -159 30l9 76q93 -40 160 -40q65 0 101 41t36 111v44h-2q-51 -69 -148 -69q-91 0 -143 66q-47 60 -47 152 q0 94 49 161q55 75 149 75q107 0 147 -76h1v66h76v-425z"/>
<glyph unicode="h" horiz-adv-x="532" d="M462 0h-82v230q0 81 -20 117q-22 38 -74 41q-135 0 -135 -183v-205h-81v653h81v-273h2q48 74 143 74q166 0 166 -190v-264z"/>
<glyph unicode="i" horiz-adv-x="242" d="M167 543h-92v92h92v-92zM162 0h-82v444h82v-444z"/>
<glyph unicode="j" horiz-adv-x="242" d="M167 543h-92v92h92v-92zM162 -16q0 -75 -17 -112q-28 -65 -108 -65q-15 0 -51 3l3 71q11 -3 33 -3q58 0 58 94v472h82v-460z"/>
<glyph unicode="k" d="M467 0h-117l-199 228v-228h-81v653h81v-389l179 180h111l-206 -197z"/>
<glyph unicode="l" horiz-adv-x="242" d="M162 0h-82v653h82v-653z"/>
<glyph unicode="m" horiz-adv-x="773" d="M706 0h-82v264q0 124 -79 124q-59 0 -90 -51q-27 -44 -27 -113v-224h-82v264q0 124 -79 124q-59 0 -89 -51q-27 -44 -27 -113v-224h-82v444h76v-65h2q46 75 141 75q93 0 126 -86q20 43 65 67q37 19 73 19q154 0 154 -170v-284z"/>
<glyph unicode="n" horiz-adv-x="532" d="M462 0h-82v230q0 81 -20 117q-22 38 -74 41q-135 0 -135 -183v-205h-81v444h79v-71h2q37 81 145 81q166 0 166 -190v-264z"/>
<glyph unicode="o" horiz-adv-x="532" d="M266 56q67 0 105 53q34 47 34 113q0 67 -37 115q-40 51 -102 51t-102 -51q-37 -48 -37 -115t34 -113q38 -53 105 -53zM429 58q-65 -68 -163 -68t-163 68q-63 66 -63 164q0 102 62 167q63 65 164 65t164 -65q62 -65 62 -167q0 -98 -63 -164z"/>
<glyph unicode="p" horiz-adv-x="532" d="M282 56q61 0 95 57q28 48 28 111q0 67 -28 111q-32 53 -94 53q-63 0 -99 -52q-33 -47 -33 -115q0 -64 31 -110q36 -55 100 -55zM151 -183h-81v627h78v-63h2q43 73 150 73q92 0 144 -67q48 -62 48 -157q0 -102 -45 -166q-51 -74 -146 -74q-105 0 -148 71h-2v-244z"/>
<glyph unicode="q" horiz-adv-x="532" d="M250 56q64 0 100 55q30 46 30 110q0 68 -32 115q-37 52 -99 52q-61 0 -94 -52q-28 -45 -28 -112q0 -62 29 -111q34 -57 94 -57zM462 -183h-82v241h-2q-41 -68 -147 -68q-95 0 -146 74q-45 65 -45 166q0 95 48 157q52 67 143 67q105 0 151 -74h2v64h78v-627z"/>
<glyph unicode="r" horiz-adv-x="338" d="M151 0h-81v444h76v-69h2q35 79 116 79q29 0 54 -6v-73q-26 8 -46 8q-54 0 -87 -49q-34 -49 -34 -132v-202z"/>
<glyph unicode="s" horiz-adv-x="338" d="M37 87q47 -31 101 -31q84 0 84 63q0 27 -30 48q-11 8 -66 35q-96 48 -96 116q0 67 45 103q41 33 111 33q42 0 102 -17l-7 -72q-32 23 -86 23q-78 0 -78 -54q0 -30 30 -51q11 -7 66 -33q96 -45 96 -122q0 -68 -48 -105q-42 -33 -107 -33q-78 0 -122 24z"/>
<glyph unicode="t" horiz-adv-x="338" d="M312 2q-33 -12 -69 -12q-137 0 -137 128v260h-100v66h100v102l82 26v-128h117v-66h-117v-243q0 -37 21 -59q19 -20 48 -20q33 0 55 15v-69z"/>
<glyph unicode="u" horiz-adv-x="532" d="M462 0h-79v70h-2q-38 -80 -145 -80q-166 0 -166 190v264h81v-230q0 -81 20 -116q22 -39 74 -42q135 0 135 182v206h82v-444z"/>
<glyph unicode="v" horiz-adv-x="435" d="M266 0h-97l-159 444h89l120 -362h2l123 362h81z"/>
<glyph unicode="w" horiz-adv-x="725" d="M572 0h-95l-115 372h-2l-112 -372h-95l-143 444h90l102 -367h2l113 367h96l112 -367h1l108 367h80z"/>
<glyph unicode="x" horiz-adv-x="435" d="M426 0h-101l-109 174l-110 -174h-97l160 232l-145 212h102l97 -159l98 159h91l-142 -212z"/>
<glyph unicode="y" horiz-adv-x="435" d="M254 -20q-31 -85 -55 -117q-42 -56 -112 -56q-33 0 -56 6l6 67q16 -7 38 -7q46 0 76 51q21 37 21 59q-1 10 -15 47l-151 414h90l119 -367h2l121 367h83z"/>
<glyph unicode="z" horiz-adv-x="435" d="M398 0h-361v71l256 307h-243v66h338v-72l-256 -306h266v-66z"/>
<glyph unicode="{" horiz-adv-x="290" d="M273 -122h-68q-35 0 -64 28q-34 32 -34 82v158q0 42 -24 68q-22 24 -51 24v60q28 0 51 23q24 26 24 64v163q0 50 34 82q29 28 64 28h68v-61h-46q-43 0 -43 -66v-158q0 -85 -80 -104v-2q27 -4 48 -23q32 -29 32 -84v-155q0 -66 43 -66h46v-61z"/>
<glyph unicode="|" horiz-adv-x="193" d="M135 -218h-77v871h77v-871z"/>
<glyph unicode="}" horiz-adv-x="290" d="M183 -12q0 -50 -33 -82q-30 -28 -66 -28h-67v61h46q43 0 43 66v158q0 87 80 104v2q-80 10 -80 107v155q0 66 -43 66h-46v61h67q36 0 66 -28q33 -32 33 -82v-158q0 -42 24 -68q22 -24 51 -24v-60q-28 0 -51 -23q-24 -26 -24 -64v-163z"/>
<glyph unicode="~" horiz-adv-x="522" d="M462 229q-36 -74 -109 -74q-32 0 -98 30q-66 29 -87 29q-31 0 -77 -63l-31 60q36 74 109 74q33 0 99 -29q66 -30 86 -30q34 0 77 64z"/>
<glyph unicode="¡" horiz-adv-x="338" d="M218 346h-97v98h97v-98zM218 -164h-97l11 437h75z"/>
<glyph unicode="¢" d="M406 8q-37 -18 -102 -18q-39 0 -69 10l-34 -116h-50l40 136q-114 63 -114 202q0 102 63 167t164 65h5q4 0 7 -1l29 99h49l-30 -104q33 -8 39 -11l-7 -68q-25 11 -51 15l-91 -318q32 -10 58 -10q49 0 88 25zM297 387q-61 -4 -98 -54q-35 -47 -35 -111q0 -79 48 -127z"/>
<glyph unicode="£" d="M432 0h-381v77h80v226h-69v50h69v49q0 97 53 155q56 61 157 61q52 0 103 -17l-7 -81q-46 21 -87 21q-132 0 -132 -145v-43h140v-50h-140v-226h214v-77z"/>
<glyph unicode="¤" d="M242 159q58 0 99 44q40 43 40 101q0 59 -40 101q-41 43 -99 43t-99 -43q-40 -42 -40 -101q0 -61 41 -103q40 -42 98 -42zM463 127l-44 -44l-47 49q-50 -44 -130 -44q-79 0 -129 44l-48 -49l-44 44l49 50q-44 50 -44 127q0 81 44 128l-49 47l44 46l48 -48q51 42 129 42 q76 0 130 -42l47 48l44 -46l-47 -47q42 -46 42 -128q0 -77 -42 -127z"/>
<glyph unicode="¥" d="M286 0h-87v141h-122v50h122v63l-7 14h-115v50h87l-159 289h97l142 -272l138 272h97l-158 -289h88v-50h-116l-7 -14v-63h123v-50h-123v-141z"/>
<glyph unicode="¦" horiz-adv-x="193" d="M135 -152h-77v304h77v-304zM135 283h-77v304h77v-304z"/>
<glyph unicode="§" d="M268 188q34 -11 44 -16q32 38 32 66q0 44 -64 73q-15 6 -54 20q-32 12 -44 19q-32 -26 -32 -68q0 -43 64 -73q19 -9 54 -21zM85 -6q58 -31 144 -31q41 0 70 19q33 23 33 61q0 30 -40 50q-8 4 -89 34q-130 47 -130 138q0 71 64 108q-60 35 -60 104q0 67 60 107 q51 34 122 34q60 0 126 -17l-8 -79q-59 24 -106 24q-113 0 -113 -66q0 -34 41 -56q15 -9 90 -35q131 -47 131 -135q0 -59 -62 -110q56 -34 56 -99q0 -76 -66 -118q-55 -35 -130 -35q-78 0 -141 22z"/>
<glyph unicode="¨" horiz-adv-x="242" d="M233 512h-82v87h82v-87zM90 512h-81v87h81v-87z"/>
<glyph unicode="©" horiz-adv-x="696" d="M348 50q99 0 168 72q70 73 70 182q0 108 -70 181q-69 72 -168 72t-168 -72q-70 -73 -70 -181q0 -109 70 -182q69 -72 168 -72zM348 618q129 0 222 -92q92 -93 92 -222q0 -131 -92 -223q-92 -91 -222 -91t-221 91q-93 92 -93 223q0 129 93 222q92 92 221 92zM506 248 q-10 -64 -52 -101q-40 -35 -98 -35q-80 0 -130 56q-49 54 -49 136q0 84 46 135q48 54 130 54q60 0 101 -33q44 -36 52 -97h-63q-14 69 -89 69q-54 0 -83 -36q-27 -34 -27 -91q0 -58 30 -94q31 -38 82 -38q76 0 87 75h63z"/>
<glyph unicode="ª" horiz-adv-x="314" d="M219 464l-35 1q-93 0 -93 -47q0 -30 52 -30q76 0 76 52v24zM293 345h-73v33h-2q-25 -40 -85 -40q-42 0 -73 16q-40 22 -40 67q0 50 54 73q39 17 92 17h28q7 0 25 -2q0 58 -68 58q-53 0 -94 -28l-2 54q49 25 102 25q66 0 97 -21q37 -26 37 -90v-111q0 -17 1 -34z"/>
<glyph unicode="«" d="M421 58h-76l-125 176l125 176h76l-113 -176zM245 58h-76l-125 176l125 176h76l-113 -176z"/>
<glyph unicode="¬" horiz-adv-x="522" d="M481 90h-76v183h-364v77h440v-260z"/>
<glyph unicode="­" horiz-adv-x="290" d="M257 201h-224v66h224v-66z"/>
<glyph unicode="®" horiz-adv-x="696" d="M351 331q36 0 51 8q23 12 23 45q0 48 -73 48h-59v-101h58zM493 127h-68l-92 153h-40v-153h-66v356h132q132 0 132 -105q0 -87 -93 -95zM348 50q99 0 168 72q70 73 70 182q0 108 -70 181q-69 72 -168 72t-168 -72q-70 -73 -70 -181q0 -109 70 -182q69 -72 168 -72z M348 618q129 0 222 -92q92 -93 92 -222q0 -131 -92 -223q-92 -91 -222 -91t-221 91q-93 92 -93 223q0 129 93 222q92 92 221 92z"/>
<glyph unicode="¯" horiz-adv-x="242" d="M250 535h-258v51h258v-51z"/>
<glyph unicode="°" horiz-adv-x="348" d="M174 618q52 0 88 -37q37 -36 37 -88t-37 -88q-36 -36 -88 -36t-88 36t-36 88t36 88q36 37 88 37zM105 493q0 -28 20 -49q21 -20 49 -20q29 0 49 20q20 21 20 49q0 29 -20 49t-49 20q-28 0 -49 -20q-20 -20 -20 -49z"/>
<glyph unicode="±" horiz-adv-x="522" d="M481 0h-440v77h440v-77zM481 236h-182v-128h-76v128h-182v76h182v128h76v-128h182v-76z"/>
<glyph unicode="²" horiz-adv-x="314" d="M287 245h-260v66q177 139 177 198q0 24 -24 37q-19 11 -45 11q-49 0 -91 -25l-5 64q50 22 109 22q56 0 92 -24q41 -29 41 -82q0 -47 -68 -121q-59 -63 -99 -83v-2h173v-61z"/>
<glyph unicode="³" horiz-adv-x="314" d="M197 435q90 -12 90 -91q0 -104 -161 -104q-48 0 -98 14l9 66q19 -19 81 -19q93 0 93 46q0 27 -30 44q-25 14 -57 14h-43v61h40q29 0 55 12q31 14 31 38q0 41 -77 41q-32 0 -85 -19l-3 62q54 18 107 18q56 0 93 -23q42 -27 42 -76q0 -33 -28 -56q-24 -21 -59 -26v-2z"/>
<glyph unicode="´" horiz-adv-x="242" d="M122 505h-58l77 126h95z"/>
<glyph unicode="µ" horiz-adv-x="532" d="M462 0h-79v70h-2q-38 -80 -145 -80q-54 0 -85 17v-190h-81v627h81v-230q0 -81 20 -116q22 -39 74 -42q135 0 135 182v206h82v-444z"/>
<glyph unicode="¶" horiz-adv-x="522" d="M458 -97h-76v643h-100v-643h-77v387q-85 0 -137 43q-51 43 -51 112q0 162 206 162h235v-704z"/>
<glyph unicode="·" horiz-adv-x="242" d="M158 228q-15 -16 -36 -16t-36 16q-16 16 -16 36q0 21 16 36q15 15 36 15t36 -15q14 -15 14 -36t-14 -36z"/>
<glyph unicode="¸" horiz-adv-x="242" d="M104 -145q31 -13 56 -13q49 0 49 40q0 34 -40 34q-15 0 -36 -7l-15 16l56 75h41l-40 -52l2 -2q9 4 26 4q30 0 51 -16q21 -18 21 -47q0 -40 -37 -62q-32 -18 -77 -18q-41 0 -73 18z"/>
<glyph unicode="¹" horiz-adv-x="314" d="M211 245h-77v301l-61 -47l-29 40l96 73h71v-367z"/>
<glyph unicode="º" horiz-adv-x="345" d="M172 388q79 0 79 90q0 89 -79 89q-78 0 -78 -89q0 -90 78 -90zM322 478q0 -59 -41 -99q-43 -41 -109 -41t-108 41q-41 40 -41 99q0 61 40 100q42 40 109 40q68 0 110 -40q40 -39 40 -100z"/>
<glyph unicode="»" d="M139 58h-76l113 176l-113 176h76l125 -176zM315 58h-77l113 176l-113 176h77l124 -176z"/>
<glyph unicode="¼" horiz-adv-x="726" d="M652 0h-77v72h-184v53l160 242h101v-234h45v-61h-45v-72zM575 133v173h-2l-111 -173h113zM196 245h-77v301l-61 -47l-29 40l96 73h71v-367zM187 -19h-63l377 645h63z"/>
<glyph unicode="½" horiz-adv-x="726" d="M697 0h-260v66l42 35q36 29 60 51q75 71 75 112q0 24 -24 37q-20 10 -45 10q-49 0 -91 -25l-5 65q51 21 109 21q56 0 92 -24q41 -27 41 -81q0 -46 -68 -121q-60 -64 -99 -83v-2h173v-61zM196 245h-77v301l-61 -47l-29 40l96 73h71v-367zM160 -19h-63l377 645h63z"/>
<glyph unicode="¾" horiz-adv-x="726" d="M652 0h-77v72h-184v53l160 242h101v-234h45v-61h-45v-72zM575 133v173h-2l-111 -173h113zM197 435q90 -12 90 -91q0 -104 -161 -104q-48 0 -98 14l9 66q19 -19 81 -19q93 0 93 46q0 27 -30 44q-25 14 -57 14h-43v61h40q29 0 55 12q31 14 31 38q0 41 -77 41q-32 0 -85 -19 l-3 62q54 18 107 18q56 0 93 -23q42 -27 42 -76q0 -33 -28 -56q-24 -21 -59 -26v-2zM224 -19h-62l377 645h62z"/>
<glyph unicode="¿" horiz-adv-x="435" d="M265 346h-97v98h97v-98zM371 -145q-71 -29 -145 -29q-76 0 -129 40q-59 44 -59 118q0 63 69 144t69 130v15h82v-18q0 -62 -63 -138q-64 -76 -64 -127q0 -43 32 -66q28 -21 73 -21q80 0 129 34z"/>
<glyph unicode="À" horiz-adv-x="628" d="M433 224l-121 301l-121 -301h242zM618 0h-95l-62 153h-297l-62 -153h-92l260 607h91zM371 651h-58l-114 126h95z"/>
<glyph unicode="Á" horiz-adv-x="628" d="M433 224l-121 301l-121 -301h242zM618 0h-95l-62 153h-297l-62 -153h-92l260 607h91zM315 651h-58l77 126h95z"/>
<glyph unicode="Â" horiz-adv-x="628" d="M433 224l-121 301l-121 -301h242zM618 0h-95l-62 153h-297l-62 -153h-92l260 607h91zM440 651h-70l-57 86l-56 -86h-69l86 126h79z"/>
<glyph unicode="Ã" horiz-adv-x="628" d="M462 753q-13 -97 -82 -97q-25 0 -74 20q-48 20 -65 20q-29 0 -35 -40h-40q13 97 82 97q24 0 70 -20q47 -20 64 -20q34 0 40 40h40zM433 224l-121 301l-121 -301h242zM618 0h-95l-62 153h-297l-62 -153h-92l260 607h91z"/>
<glyph unicode="Ä" horiz-adv-x="628" d="M433 224l-121 301l-121 -301h242zM618 0h-95l-62 153h-297l-62 -153h-92l260 607h91zM426 658h-82v87h82v-87zM283 658h-81v87h81v-87z"/>
<glyph unicode="Å" horiz-adv-x="628" d="M433 224l-121 301l-121 -301h242zM618 0h-95l-62 153h-297l-62 -153h-92l260 607h91zM314 671q21 0 38 17q16 16 16 37t-16 37t-38 16t-38 -16t-16 -37q0 -22 16 -38t38 -16zM403 725q0 -37 -26 -63q-27 -26 -63 -26q-37 0 -63 26t-26 63q0 36 26 62t63 26q36 0 63 -26 q26 -26 26 -62z"/>
<glyph unicode="Æ" horiz-adv-x="821" d="M444 224l-19 322h-2l-192 -322h213zM760 0h-302l-10 153h-258l-92 -153h-96l367 607h382v-76h-241l11 -178h214v-76h-210l13 -200h222v-77z"/>
<glyph unicode="Ç" horiz-adv-x="532" d="M505 11q-59 -23 -129 -23q-18 0 -30 3l-33 -43l3 -3q12 5 25 5q31 0 51 -16q21 -18 21 -47q0 -40 -37 -62q-32 -18 -77 -18q-38 0 -73 18l16 30q33 -13 56 -13q49 0 49 40q0 34 -40 34q-15 0 -36 -7l-14 16l50 69q-120 18 -190 101q-71 84 -71 211q0 140 91 227 q90 85 230 85q77 0 137 -26l-7 -85q-58 34 -126 34q-104 0 -169 -67q-64 -67 -64 -170q0 -105 68 -173q65 -65 161 -65q85 0 132 30z"/>
<glyph unicode="È" d="M422 0h-340v607h340v-76h-253v-178h230v-76h-230v-200h253v-77zM299 651h-58l-114 126h95z"/>
<glyph unicode="É" d="M422 0h-340v607h340v-76h-253v-178h230v-76h-230v-200h253v-77zM243 651h-58l77 126h95z"/>
<glyph unicode="Ê" d="M422 0h-340v607h340v-76h-253v-178h230v-76h-230v-200h253v-77zM368 651h-70l-57 86l-56 -86h-69l86 126h79z"/>
<glyph unicode="Ë" d="M354 658h-82v87h82v-87zM211 658h-81v87h81v-87zM422 0h-340v607h340v-76h-253v-178h230v-76h-230v-200h253v-77z"/>
<glyph unicode="Ì" horiz-adv-x="242" d="M164 0h-87v607h87v-607zM178 651h-58l-114 126h95z"/>
<glyph unicode="Í" horiz-adv-x="242" d="M122 651h-58l77 126h95zM164 0h-87v607h87v-607z"/>
<glyph unicode="Î" horiz-adv-x="242" d="M164 0h-87v607h87v-607zM247 651h-70l-57 86l-56 -86h-69l86 126h79z"/>
<glyph unicode="Ï" horiz-adv-x="242" d="M233 658h-82v87h82v-87zM90 658h-81v87h81v-87zM164 0h-87v607h87v-607z"/>
<glyph unicode="Ð" horiz-adv-x="628" d="M72 0v298h-59v55h59v254h179q140 0 230 -79q94 -82 94 -219q0 -151 -87 -231q-84 -78 -237 -78h-179zM251 77q232 0 232 228q0 99 -61 162q-63 64 -163 64h-100v-178h159v-55h-159v-221h92z"/>
<glyph unicode="Ñ" horiz-adv-x="628" d="M552 0h-112l-275 499h-1v-499h-87v607h118l268 -489h2v489h87v-607zM462 753q-13 -97 -82 -97q-25 0 -74 20q-48 20 -65 20q-29 0 -35 -40h-40q13 97 82 97q24 0 70 -20q47 -20 64 -20q34 0 40 40h40z"/>
<glyph unicode="Ò" horiz-adv-x="677" d="M555 77q-79 -87 -217 -87q-137 0 -215 87q-77 85 -77 227q0 138 77 224q80 90 215 90q136 0 216 -90q77 -86 77 -224q0 -142 -76 -227zM338 66q98 0 153 73q48 65 48 165q0 99 -50 165q-55 72 -151 72q-95 0 -150 -72q-50 -66 -50 -165q0 -100 48 -165q54 -73 152 -73z M396 651h-58l-114 126h95z"/>
<glyph unicode="Ó" horiz-adv-x="677" d="M340 651h-58l77 126h95zM555 77q-79 -87 -217 -87q-137 0 -215 87q-77 85 -77 227q0 138 77 224q80 90 215 90q136 0 216 -90q77 -86 77 -224q0 -142 -76 -227zM338 66q98 0 153 73q48 65 48 165q0 99 -50 165q-55 72 -151 72q-95 0 -150 -72q-50 -66 -50 -165 q0 -100 48 -165q54 -73 152 -73z"/>
<glyph unicode="Ô" horiz-adv-x="677" d="M555 77q-79 -87 -217 -87q-137 0 -215 87q-77 85 -77 227q0 138 77 224q80 90 215 90q136 0 216 -90q77 -86 77 -224q0 -142 -76 -227zM338 66q98 0 153 73q48 65 48 165q0 99 -50 165q-55 72 -151 72q-95 0 -150 -72q-50 -66 -50 -165q0 -100 48 -165q54 -73 152 -73z M465 651h-70l-57 86l-56 -86h-69l86 126h79z"/>
<glyph unicode="Õ" horiz-adv-x="677" d="M555 77q-79 -87 -217 -87q-137 0 -215 87q-77 85 -77 227q0 138 77 224q80 90 215 90q136 0 216 -90q77 -86 77 -224q0 -142 -76 -227zM338 66q98 0 153 73q48 65 48 165q0 99 -50 165q-55 72 -151 72q-95 0 -150 -72q-50 -66 -50 -165q0 -100 48 -165q54 -73 152 -73z M487 753q-13 -97 -82 -97q-25 0 -74 20q-48 20 -65 20q-29 0 -35 -40h-40q13 97 82 97q24 0 70 -20q47 -20 64 -20q34 0 40 40h40z"/>
<glyph unicode="Ö" horiz-adv-x="677" d="M451 658h-82v87h82v-87zM308 658h-81v87h81v-87zM555 77q-79 -87 -217 -87q-137 0 -215 87q-77 85 -77 227q0 138 77 224q80 90 215 90q136 0 216 -90q77 -86 77 -224q0 -142 -76 -227zM338 66q98 0 153 73q48 65 48 165q0 99 -50 165q-55 72 -151 72q-95 0 -150 -72 q-50 -66 -50 -165q0 -100 48 -165q54 -73 152 -73z"/>
<glyph unicode="×" horiz-adv-x="522" d="M463 72l-54 -54l-148 149l-148 -149l-54 54l148 148l-148 148l54 54l148 -149l148 149l54 -54l-149 -148z"/>
<glyph unicode="Ø" horiz-adv-x="677" d="M214 110q51 -44 124 -44q98 0 153 73q48 65 48 165q0 96 -49 163zM115 -18l-33 22l49 65q-85 85 -85 235q0 138 77 224q80 90 215 90q99 0 176 -54l46 60l32 -25l-47 -61q86 -91 86 -234q0 -142 -76 -227q-79 -87 -217 -87q-105 0 -176 53zM463 498q-51 43 -121 43 q-97 0 -153 -71q-51 -65 -51 -166t48 -165z"/>
<glyph unicode="Ù" horiz-adv-x="628" d="M550 251q0 -128 -61 -195q-61 -66 -175 -66t-175 66q-61 67 -61 195v356h87v-344q0 -197 149 -197t149 197v344h87v-356zM371 651h-58l-114 126h95z"/>
<glyph unicode="Ú" horiz-adv-x="628" d="M315 651h-58l77 126h95zM550 251q0 -128 -61 -195q-61 -66 -175 -66t-175 66q-61 67 -61 195v356h87v-344q0 -197 149 -197t149 197v344h87v-356z"/>
<glyph unicode="Û" horiz-adv-x="628" d="M550 251q0 -128 -61 -195q-61 -66 -175 -66t-175 66q-61 67 -61 195v356h87v-344q0 -197 149 -197t149 197v344h87v-356zM440 651h-70l-57 86l-56 -86h-69l86 126h79z"/>
<glyph unicode="Ü" horiz-adv-x="628" d="M426 658h-82v87h82v-87zM283 658h-81v87h81v-87zM550 251q0 -128 -61 -195q-61 -66 -175 -66t-175 66q-61 67 -61 195v356h87v-344q0 -197 149 -197t149 197v344h87v-356z"/>
<glyph unicode="Ý" horiz-adv-x="580" d="M334 0h-87v254l-237 353h101l181 -272l177 272h102l-237 -353v-254zM292 651h-58l77 126h95z"/>
<glyph unicode="Þ" d="M245 231q49 0 82 23q40 28 40 84q0 52 -47 81q-38 23 -87 23h-74v-211h86zM159 0h-87v607h87v-88h72q228 0 228 -182q0 -94 -66 -142q-57 -41 -149 -41h-85v-154z"/>
<glyph unicode="ß" horiz-adv-x="532" d="M151 0h-81v412q0 124 48 185q51 66 165 66q69 0 120 -42q56 -48 56 -129q0 -109 -101 -141v-2q60 -8 96 -56q33 -44 33 -104q0 -84 -50 -137q-53 -57 -142 -57q-45 0 -84 12v69q33 -15 68 -15q52 0 86 32q35 34 35 92q0 126 -163 126v66q67 0 98 23q37 27 37 90 q0 44 -25 74q-28 33 -72 33q-66 0 -98 -56q-26 -45 -26 -116v-425z"/>
<glyph unicode="à" d="M333 211l-52 2q-154 0 -154 -85q0 -33 27 -54q24 -18 56 -18q59 0 92 34q31 31 31 82v39zM342 0v57h-2q-45 -67 -137 -67q-163 0 -163 138q0 75 72 114q57 32 134 32h44q11 0 43 -2q0 60 -24 87q-26 29 -85 29q-76 0 -129 -45l-5 69q69 42 147 42q178 0 178 -183v-184 q0 -48 3 -87h-76zM299 505h-58l-114 126h95z"/>
<glyph unicode="á" d="M243 505h-58l77 126h95zM333 211l-52 2q-154 0 -154 -85q0 -33 27 -54q24 -18 56 -18q59 0 92 34q31 31 31 82v39zM342 0v57h-2q-45 -67 -137 -67q-163 0 -163 138q0 75 72 114q57 32 134 32h44q11 0 43 -2q0 60 -24 87q-26 29 -85 29q-76 0 -129 -45l-5 69q69 42 147 42 q178 0 178 -183v-184q0 -48 3 -87h-76z"/>
<glyph unicode="â" d="M333 211l-52 2q-154 0 -154 -85q0 -33 27 -54q24 -18 56 -18q59 0 92 34q31 31 31 82v39zM342 0v57h-2q-45 -67 -137 -67q-163 0 -163 138q0 75 72 114q57 32 134 32h44q11 0 43 -2q0 60 -24 87q-26 29 -85 29q-76 0 -129 -45l-5 69q69 42 147 42q178 0 178 -183v-184 q0 -48 3 -87h-76zM368 505h-70l-57 86l-56 -86h-69l86 126h79z"/>
<glyph unicode="ã" d="M390 607q-13 -97 -82 -97q-25 0 -74 20q-48 20 -65 20q-29 0 -35 -40h-40q13 97 82 97q24 0 70 -20q47 -20 64 -20q34 0 40 40h40zM333 211l-52 2q-154 0 -154 -85q0 -33 27 -54q24 -18 56 -18q59 0 92 34q31 31 31 82v39zM342 0v57h-2q-45 -67 -137 -67q-163 0 -163 138 q0 75 72 114q57 32 134 32h44q11 0 43 -2q0 60 -24 87q-26 29 -85 29q-76 0 -129 -45l-5 69q69 42 147 42q178 0 178 -183v-184q0 -48 3 -87h-76z"/>
<glyph unicode="ä" d="M333 211l-52 2q-154 0 -154 -85q0 -33 27 -54q24 -18 56 -18q59 0 92 34q31 31 31 82v39zM342 0v57h-2q-45 -67 -137 -67q-163 0 -163 138q0 75 72 114q57 32 134 32h44q11 0 43 -2q0 60 -24 87q-26 29 -85 29q-76 0 -129 -45l-5 69q69 42 147 42q178 0 178 -183v-184 q0 -48 3 -87h-76zM354 512h-82v87h82v-87zM211 512h-81v87h81v-87z"/>
<glyph unicode="å" d="M242 525q21 0 38 17q16 16 16 37t-16 37t-38 16t-38 -16t-16 -37q0 -22 16 -38t38 -16zM331 579q0 -37 -26 -63q-27 -26 -63 -26q-37 0 -63 26t-26 63q0 36 26 62t63 26q36 0 63 -26q26 -26 26 -62zM333 211l-52 2q-154 0 -154 -85q0 -33 27 -54q24 -18 56 -18 q59 0 92 34q31 31 31 82v39zM342 0v57h-2q-45 -67 -137 -67q-163 0 -163 138q0 75 72 114q57 32 134 32h44q11 0 43 -2q0 60 -24 87q-26 29 -85 29q-76 0 -129 -45l-5 69q69 42 147 42q178 0 178 -183v-184q0 -48 3 -87h-76z"/>
<glyph unicode="æ" horiz-adv-x="773" d="M651 264q0 47 -29 84q-32 40 -80 40q-53 0 -86 -36q-32 -34 -32 -88h227zM313 212q-26 1 -49 1q-141 0 -141 -84q0 -35 27 -55q23 -18 60 -18q57 0 95 46q37 45 37 109zM692 19q-67 -29 -127 -29q-153 0 -192 103h-2q-11 -49 -62 -78q-45 -25 -102 -25q-67 0 -117 36 q-54 40 -54 105q0 81 78 118q55 25 136 25q27 0 57 -2l35 -2q0 118 -125 118q-62 0 -124 -45l-4 69q65 42 147 42q112 0 153 -77q43 77 154 77q104 0 153 -77q42 -64 42 -173h-314q0 -63 41 -105q41 -43 104 -43q64 0 123 46v-83z"/>
<glyph unicode="ç" horiz-adv-x="386" d="M362 8q-37 -18 -106 -18l-32 -42l1 -2q11 4 26 4q31 0 52 -16q21 -18 21 -47q0 -40 -37 -62q-32 -18 -77 -18q-41 0 -73 18l15 30q33 -13 57 -13q49 0 49 40q0 34 -40 34q-15 0 -36 -7l-15 16l51 69q-82 14 -134 78q-51 64 -51 150q0 102 62 167q63 65 164 65 q56 0 99 -17l-7 -68q-49 19 -88 19q-65 0 -106 -51q-37 -48 -37 -115t35 -113q40 -53 113 -53q49 0 88 25z"/>
<glyph unicode="è" d="M357 264q0 53 -29 88q-31 36 -82 36q-102 0 -119 -124h230zM410 18q-84 -28 -140 -28q-115 0 -174 66q-56 62 -56 174q0 99 57 161q58 63 151 63q196 0 196 -250h-317q0 -64 44 -107q43 -41 102 -41q77 0 137 44v-82zM299 505h-58l-114 126h95z"/>
<glyph unicode="é" d="M243 505h-58l77 126h95zM357 264q0 53 -29 88q-31 36 -82 36q-102 0 -119 -124h230zM410 18q-84 -28 -140 -28q-115 0 -174 66q-56 62 -56 174q0 99 57 161q58 63 151 63q196 0 196 -250h-317q0 -64 44 -107q43 -41 102 -41q77 0 137 44v-82z"/>
<glyph unicode="ê" d="M357 264q0 53 -29 88q-31 36 -82 36q-102 0 -119 -124h230zM410 18q-84 -28 -140 -28q-115 0 -174 66q-56 62 -56 174q0 99 57 161q58 63 151 63q196 0 196 -250h-317q0 -64 44 -107q43 -41 102 -41q77 0 137 44v-82zM368 505h-70l-57 86l-56 -86h-69l86 126h79z"/>
<glyph unicode="ë" d="M354 512h-82v87h82v-87zM211 512h-81v87h81v-87zM357 264q0 53 -29 88q-31 36 -82 36q-102 0 -119 -124h230zM410 18q-84 -28 -140 -28q-115 0 -174 66q-56 62 -56 174q0 99 57 161q58 63 151 63q196 0 196 -250h-317q0 -64 44 -107q43 -41 102 -41q77 0 137 44v-82z"/>
<glyph unicode="ì" horiz-adv-x="242" d="M162 0h-82v444h82v-444zM178 505h-58l-114 126h95z"/>
<glyph unicode="í" horiz-adv-x="242" d="M122 505h-58l77 126h95zM162 0h-82v444h82v-444z"/>
<glyph unicode="î" horiz-adv-x="242" d="M162 0h-82v444h82v-444zM247 505h-70l-57 86l-56 -86h-69l86 126h79z"/>
<glyph unicode="ï" horiz-adv-x="242" d="M233 512h-82v87h82v-87zM90 512h-81v87h81v-87zM162 0h-82v444h82v-444z"/>
<glyph unicode="ð" horiz-adv-x="532" d="M341 435q-39 54 -95 94l-112 -60l-40 46l96 51q-39 25 -109 51l63 46q69 -26 119 -57l106 57l40 -46l-91 -49q174 -133 174 -346q0 -98 -63 -164q-65 -68 -163 -68t-163 68q-63 66 -63 164q0 102 62 167q63 65 164 65q44 0 73 -19h2zM266 56q67 0 105 53q34 47 34 113 q0 67 -37 115q-40 51 -102 51t-102 -51q-37 -48 -37 -115t34 -113q38 -53 105 -53z"/>
<glyph unicode="ñ" horiz-adv-x="532" d="M462 0h-82v230q0 81 -20 117q-22 38 -74 41q-135 0 -135 -183v-205h-81v444h79v-71h2q37 81 145 81q166 0 166 -190v-264zM414 607q-13 -97 -82 -97q-25 0 -74 20q-48 20 -65 20q-29 0 -35 -40h-40q13 97 82 97q24 0 70 -20q47 -20 64 -20q34 0 40 40h40z"/>
<glyph unicode="ò" horiz-adv-x="532" d="M266 56q67 0 105 53q34 47 34 113q0 67 -37 115q-40 51 -102 51t-102 -51q-37 -48 -37 -115t34 -113q38 -53 105 -53zM429 58q-65 -68 -163 -68t-163 68q-63 66 -63 164q0 102 62 167q63 65 164 65t164 -65q62 -65 62 -167q0 -98 -63 -164zM323 505h-58l-114 126h95z"/>
<glyph unicode="ó" horiz-adv-x="532" d="M267 505h-58l77 126h95zM266 56q67 0 105 53q34 47 34 113q0 67 -37 115q-40 51 -102 51t-102 -51q-37 -48 -37 -115t34 -113q38 -53 105 -53zM429 58q-65 -68 -163 -68t-163 68q-63 66 -63 164q0 102 62 167q63 65 164 65t164 -65q62 -65 62 -167q0 -98 -63 -164z"/>
<glyph unicode="ô" horiz-adv-x="532" d="M266 56q67 0 105 53q34 47 34 113q0 67 -37 115q-40 51 -102 51t-102 -51q-37 -48 -37 -115t34 -113q38 -53 105 -53zM429 58q-65 -68 -163 -68t-163 68q-63 66 -63 164q0 102 62 167q63 65 164 65t164 -65q62 -65 62 -167q0 -98 -63 -164zM392 505h-70l-57 86l-56 -86 h-69l86 126h79z"/>
<glyph unicode="õ" horiz-adv-x="532" d="M414 607q-13 -97 -82 -97q-25 0 -74 20q-48 20 -65 20q-29 0 -35 -40h-40q13 97 82 97q24 0 70 -20q47 -20 64 -20q34 0 40 40h40zM266 56q67 0 105 53q34 47 34 113q0 67 -37 115q-40 51 -102 51t-102 -51q-37 -48 -37 -115t34 -113q38 -53 105 -53zM429 58 q-65 -68 -163 -68t-163 68q-63 66 -63 164q0 102 62 167q63 65 164 65t164 -65q62 -65 62 -167q0 -98 -63 -164z"/>
<glyph unicode="ö" horiz-adv-x="532" d="M266 56q67 0 105 53q34 47 34 113q0 67 -37 115q-40 51 -102 51t-102 -51q-37 -48 -37 -115t34 -113q38 -53 105 -53zM429 58q-65 -68 -163 -68t-163 68q-63 66 -63 164q0 102 62 167q63 65 164 65t164 -65q62 -65 62 -167q0 -98 -63 -164zM378 512h-82v87h82v-87z M235 512h-81v87h81v-87z"/>
<glyph unicode="÷" horiz-adv-x="522" d="M308 -6q-20 -21 -45 -21q-28 0 -48 20t-20 47q0 28 20 47q19 19 47 19q26 0 46 -19q20 -20 20 -47q0 -26 -20 -46zM195 400q0 28 20 47q19 20 47 20q26 0 46 -20t20 -47q0 -25 -20 -45q-20 -21 -45 -21q-28 0 -48 20q-20 19 -20 46zM481 182h-440v76h440v-76z"/>
<glyph unicode="ø" horiz-adv-x="532" d="M82 -27l-26 22l49 62q-65 68 -65 165q0 102 62 167q63 65 164 65q80 0 133 -40l46 57l27 -22l-47 -57q67 -62 67 -170q0 -98 -63 -164q-65 -68 -163 -68q-78 0 -135 43zM177 90q37 -34 89 -34q67 0 105 53q34 47 34 113q0 60 -32 107zM351 355q-36 33 -85 33 q-62 0 -102 -51q-37 -48 -37 -115q0 -60 29 -105z"/>
<glyph unicode="ù" horiz-adv-x="532" d="M462 0h-79v70h-2q-38 -80 -145 -80q-166 0 -166 190v264h81v-230q0 -81 20 -116q22 -39 74 -42q135 0 135 182v206h82v-444zM323 505h-58l-114 126h95z"/>
<glyph unicode="ú" horiz-adv-x="532" d="M267 505h-58l77 126h95zM462 0h-79v70h-2q-38 -80 -145 -80q-166 0 -166 190v264h81v-230q0 -81 20 -116q22 -39 74 -42q135 0 135 182v206h82v-444z"/>
<glyph unicode="û" horiz-adv-x="532" d="M462 0h-79v70h-2q-38 -80 -145 -80q-166 0 -166 190v264h81v-230q0 -81 20 -116q22 -39 74 -42q135 0 135 182v206h82v-444zM392 505h-70l-57 86l-56 -86h-69l86 126h79z"/>
<glyph unicode="ü" horiz-adv-x="532" d="M378 512h-82v87h82v-87zM235 512h-81v87h81v-87zM462 0h-79v70h-2q-38 -80 -145 -80q-166 0 -166 190v264h81v-230q0 -81 20 -116q22 -39 74 -42q135 0 135 182v206h82v-444z"/>
<glyph unicode="ý" horiz-adv-x="435" d="M254 -20q-31 -85 -55 -117q-42 -56 -112 -56q-33 0 -56 6l6 67q16 -7 38 -7q46 0 76 51q21 37 21 59q-1 10 -15 47l-151 414h90l119 -367h2l121 367h83zM219 505h-58l77 126h95z"/>
<glyph unicode="þ" horiz-adv-x="532" d="M282 56q61 0 95 57q28 48 28 111q0 67 -28 111q-32 53 -94 53q-63 0 -99 -52q-33 -47 -33 -115q0 -64 31 -110q36 -55 100 -55zM151 -183h-81v836h81v-270h2q44 71 147 71q92 0 144 -67q48 -62 48 -157q0 -102 -45 -166q-51 -74 -146 -74q-105 0 -148 71h-2v-244z"/>
<glyph unicode="ÿ" horiz-adv-x="435" d="M254 -20q-31 -85 -55 -117q-42 -56 -112 -56q-33 0 -56 6l6 67q16 -7 38 -7q46 0 76 51q21 37 21 59q-1 10 -15 47l-151 414h90l119 -367h2l121 367h83zM330 512h-82v87h82v-87zM187 512h-81v87h81v-87z"/>
<glyph unicode="ı" horiz-adv-x="242" d="M162 0h-82v444h82v-444z"/>
<glyph unicode="Ł" horiz-adv-x="435" d="M418 0h-341v205l-56 -33v63l56 33v339h87v-289l170 100v-62l-170 -100v-179h254v-77z"/>
<glyph unicode="ł" horiz-adv-x="242" d="M162 0h-82v296l-56 -45v62l56 45v295h82v-231l56 44v-61l-56 -45v-360z"/>
<glyph unicode="Œ" horiz-adv-x="821" d="M767 0h-252q-22 0 -68 -2q-45 -3 -68 -3q-148 0 -239 83q-94 86 -94 233q0 137 93 220q92 81 242 81q22 0 64 -2q43 -3 63 -3h253v-76h-245v-178h228v-76h-228v-200h251v-77zM429 531q-7 0 -26 3q-17 2 -27 2q-112 0 -174 -58q-64 -59 -64 -167q0 -112 67 -177 q65 -63 172 -63q32 0 52 6v454z"/>
<glyph unicode="œ" horiz-adv-x="821" d="M699 264q0 47 -29 84q-32 40 -80 40q-54 0 -86 -36q-32 -34 -32 -88h227zM257 56q60 0 98 53q35 48 35 113q0 62 -32 110q-38 56 -101 56q-65 0 -102 -56q-32 -47 -32 -110q0 -71 31 -115q35 -51 103 -51zM740 19q-67 -29 -128 -29q-140 0 -182 95q-44 -95 -174 -95 q-102 0 -162 66q-58 63 -58 166q0 94 58 161q63 71 162 71q130 0 176 -87q41 87 159 87q104 0 153 -77q42 -64 42 -173h-314q0 -63 41 -105q41 -43 104 -43q64 0 123 46v-83z"/>
<glyph unicode="Š" horiz-adv-x="435" d="M57 96q65 -30 126 -30q44 0 78 23q41 28 41 76q0 45 -41 76q-18 14 -89 48q-63 30 -90 58q-41 42 -41 105q0 78 57 123q53 43 138 43q69 0 129 -22l-12 -80q-65 25 -114 25q-106 0 -106 -81q0 -38 41 -66q11 -8 90 -48q130 -66 130 -175q0 -93 -65 -140q-58 -41 -157 -41 q-47 0 -124 25zM258 651h-79l-87 126h69l58 -86l56 86h69z"/>
<glyph unicode="š" horiz-adv-x="338" d="M37 87q47 -31 101 -31q84 0 84 63q0 27 -30 48q-11 8 -66 35q-96 48 -96 116q0 67 45 103q41 33 111 33q42 0 102 -17l-7 -72q-32 23 -86 23q-78 0 -78 -54q0 -30 30 -51q11 -7 66 -33q96 -45 96 -122q0 -68 -48 -105q-42 -33 -107 -33q-78 0 -122 24zM210 505h-79 l-87 126h69l58 -86l56 86h69z"/>
<glyph unicode="Ÿ" horiz-adv-x="531" d="M334 0h-87v254l-237 353h101l181 -272l177 272h102l-237 -353v-254zM402 671h-82v87h82v-87zM259 671h-81v87h81v-87z"/>
<glyph unicode="Ž" horiz-adv-x="435" d="M448 0h-420v78l315 453h-305v76h405v-78l-314 -452h319v-77zM282 639h-79l-87 126h69l58 -86l56 86h69z"/>
<glyph unicode="ž" horiz-adv-x="386" d="M398 0h-361v71l256 307h-243v66h338v-72l-256 -306h266v-66zM257 505h-79l-87 126h69l58 -86l56 86h69z"/>
<glyph unicode="ƒ" d="M231 -21q-17 -90 -41 -123q-36 -49 -117 -49q-28 0 -44 4l14 71q11 -4 26 -4q59 0 75 92l62 329h-97l11 61h98l18 95q15 77 42 113q39 50 114 50q11 0 32 -3q22 -4 31 -4l-12 -70q-22 5 -36 5q-43 0 -62 -27q-14 -19 -23 -68l-18 -91h109l-12 -61h-110z"/>
<glyph unicode="ˆ" horiz-adv-x="242" d="M247 505h-70l-57 86l-56 -86h-69l86 126h79z"/>
<glyph unicode="ˇ" horiz-adv-x="242" d="M161 505h-79l-87 126h69l58 -86l56 86h69z"/>
<glyph unicode="˘" horiz-adv-x="242" d="M255 628q-13 -118 -134 -118t-134 118h43q13 -68 91 -68t91 68h43z"/>
<glyph unicode="˙" horiz-adv-x="242" d="M162 512h-82v87h82v-87z"/>
<glyph unicode="˚" horiz-adv-x="242" d="M121 525q21 0 38 17q16 16 16 37t-16 37t-38 16t-38 -16t-16 -37q0 -22 16 -38t38 -16zM210 579q0 -37 -26 -63q-27 -26 -63 -26q-37 0 -63 26t-26 63q0 36 26 62t63 26q36 0 63 -26q26 -26 26 -62z"/>
<glyph unicode="˛" horiz-adv-x="242" d="M230 -130q-37 -53 -99 -53q-72 0 -72 72q0 54 99 111h42q-75 -59 -75 -108q0 -40 29 -40q30 0 49 25z"/>
<glyph unicode="˜" horiz-adv-x="242" d="M269 607q-13 -97 -82 -97q-25 0 -74 20q-48 20 -65 20q-29 0 -35 -40h-40q13 97 82 97q24 0 70 -20q47 -20 64 -20q34 0 40 40h40z"/>
<glyph unicode="˝" horiz-adv-x="242" d="M201 505h-58l77 126h95zM44 505h-59l78 126h94z"/>
<glyph unicode="Ω" horiz-adv-x="651" d="M599 0h-223v159q74 15 114 69q39 51 39 129q0 90 -59 149t-150 59q-89 0 -150 -59q-60 -60 -60 -149q0 -77 40 -130q41 -56 114 -68v-159h-223v58h168v63q-79 21 -124 89q-44 65 -44 149q0 116 83 193q80 75 196 75q117 0 197 -74q82 -76 82 -192q0 -85 -43 -150 q-45 -68 -124 -90v-63h167v-58z"/>
<glyph unicode="π" horiz-adv-x="496" d="M476 10q-33 -15 -60 -15q-48 0 -64 31q-11 20 -11 73v258h-214v-357h-65v357h-60v60h470v-60h-66v-260q0 -47 33 -47q18 0 37 9v-49z"/>
<glyph unicode="฀" horiz-adv-x="195"/>
<glyph unicode="ก" horiz-adv-x="523" d="M479 0h-85v333q0 57 -36 90q-35 32 -94 32q-98 0 -141 -79l56 -67q-39 -26 -39 -79v-230h-85v217q0 65 40 92l-57 67q19 60 79 101q65 45 147 45q92 0 154 -53q61 -53 61 -132v-337z"/>
<glyph unicode="ข" horiz-adv-x="482" d="M438 180q0 -187 -194 -187q-97 0 -150 49q-50 45 -50 122v81q0 38 49 85q48 48 48 69v15q0 23 -22 23h-74v74h93q42 0 66 -24q22 -22 22 -59v-28q0 -42 -48 -87q-49 -45 -49 -68v-68q0 -117 115 -117q55 0 81 25q28 28 28 94v332h85v-331z"/>
<glyph unicode="ฃ" horiz-adv-x="489" d="M445 180q0 -187 -194 -187q-97 0 -151 49q-50 46 -50 122v81q0 38 53 87q52 50 52 72v22q0 22 -25 22q-26 0 -37 -31l-68 25v72l65 -30q23 32 68 32q35 0 56 -23q19 -23 19 -60v-32q0 -41 -49 -87q-49 -45 -49 -69v-68q0 -117 116 -117q55 0 81 25q28 28 28 94v332h85 v-331z"/>
<glyph unicode="ค" horiz-adv-x="524" d="M480 0h-85v338q0 117 -133 117q-62 0 -97 -30q-36 -31 -36 -87v-112q20 50 84 50h81v-75h-84q-38 0 -60 -25q-21 -24 -21 -61v-115h-85v337q0 83 59 134t159 51q99 0 159 -51q59 -51 59 -134v-337z"/>
<glyph unicode="ฅ" horiz-adv-x="536" d="M492 0h-85v357q0 69 -50 87l-89 -47l-89 47q-50 -17 -50 -87v-131q20 50 84 50h81v-75h-84q-38 0 -60 -25q-21 -24 -21 -61v-115h-85v352q0 139 130 168l94 -54l94 54q130 -29 130 -168v-352z"/>
<glyph unicode="ฆ" horiz-adv-x="543" d="M499 192q0 -95 -48 -147q-49 -52 -138 -52q-101 0 -152 72v-65h-86v245q0 38 53 87q52 50 52 72v22q0 22 -25 22q-26 0 -37 -31l-68 25v72l65 -30q23 32 68 32q35 0 56 -23q19 -23 19 -60v-32q0 -41 -49 -87q-49 -45 -49 -69v-76q13 -44 51 -76q38 -33 78 -33 q125 0 125 131v320h85v-319z"/>
<glyph unicode="ง" horiz-adv-x="509" d="M249 69q56 0 95 55q41 58 41 149q0 174 -107 174q-26 0 -53 -11l-3 74q31 10 65 10q83 0 133 -64q51 -67 51 -183q0 -126 -67 -201q-64 -72 -164 -72h-88l-140 511h89l120 -442h28z"/>
<glyph unicode="จ" horiz-adv-x="508" d="M252 68q57 0 94 50q39 54 39 145q0 100 -39 146q-37 43 -117 43q-97 0 -161 -74l-36 62q84 82 197 82q115 0 178 -68q63 -67 63 -191q0 -117 -63 -190q-62 -73 -162 -73h-72l-44 186q-8 32 -35 32h-28v75h48q65 0 86 -66l39 -159h13z"/>
<glyph unicode="ฉ" horiz-adv-x="523" d="M479 0h-85v64q-44 -71 -145 -71q-84 0 -130 41t-46 112v52q0 20 -17 20h-26v75h56q31 0 50 -21q20 -22 20 -54v-61q0 -97 97 -97q47 0 87 33q40 32 54 79v116q0 164 -150 164q-100 0 -176 -74l-36 62q84 82 211 82q112 0 174 -60t62 -164v-298z"/>
<glyph unicode="ช" horiz-adv-x="485" d="M439 180q0 -187 -195 -187q-97 0 -150 49q-50 45 -50 122v81q0 38 49 85q48 48 48 69v15q0 23 -22 23h-74v74h93q42 0 66 -24q22 -22 22 -59v-28q0 -42 -48 -87q-49 -45 -49 -68v-68q0 -117 115 -117q110 0 110 119v88q0 26 -17 44t-41 18h-13l-11 33l85 149h92l-92 -144 q82 -17 82 -115v-72z"/>
<glyph unicode="ซ" horiz-adv-x="492" d="M446 180q0 -187 -195 -187q-97 0 -151 49q-50 46 -50 122v81q0 38 53 87q52 50 52 72v22q0 22 -25 22q-26 0 -37 -31l-68 25v72l65 -30q23 32 68 32q35 0 56 -23q19 -23 19 -60v-32q0 -41 -49 -87q-49 -45 -49 -69v-68q0 -117 116 -117q110 0 110 119v88q0 26 -17 44 t-41 18h-13l-11 33l85 149h92l-92 -144q82 -17 82 -115v-72z"/>
<glyph unicode="ฌ" horiz-adv-x="828" d="M784 183q0 -190 -166 -190q-95 0 -144 69v-62h-85v333q0 58 -33 90q-32 32 -91 32q-100 0 -143 -79l56 -67q-38 -25 -38 -79v-144q0 -19 18 -19h36v-67h-68q-31 0 -51 23q-20 22 -20 56v138q0 65 40 92l-57 67q19 60 79 101q65 45 147 45q92 0 151 -52t59 -130v-172 q10 -47 48 -78q35 -30 77 -30q53 0 77 29q23 29 23 94v328h85v-328z"/>
<glyph unicode="ญ" horiz-adv-x="828" d="M784 59q0 -97 -57 -152q-57 -56 -158 -56q-74 0 -135 26l10 70q63 -26 123 -26q61 0 96 31q36 31 36 88v40q-37 -74 -133 -74q-82 0 -129 46q-48 46 -48 125v156q0 58 -33 90q-32 32 -91 32q-100 0 -143 -79l56 -67q-38 -25 -38 -79v-144q0 -19 18 -19h36v-67h-68 q-31 0 -51 23q-20 22 -20 56v138q0 65 40 92l-57 67q19 60 79 101q65 45 147 45q92 0 151 -52t59 -130v-151q0 -51 29 -82q28 -31 74 -31q42 0 79 32q35 31 43 72v331h85v-452z"/>
<glyph unicode="ฎ" horiz-adv-x="543" d="M499 -200h-104q-54 50 -119 50q-75 0 -136 -50l-21 65q62 55 147 55q81 0 148 -59v472q0 57 -36 90q-35 32 -94 32q-98 0 -141 -79l56 -67q-38 -25 -38 -79v-156q0 -31 -20 -53q-19 -21 -48 -21h-66v67h31q18 0 18 19v131q0 65 39 92l-57 67q19 60 79 101q65 45 147 45 q92 0 154 -53q61 -53 61 -132v-537z"/>
<glyph unicode="ฏ" horiz-adv-x="543" d="M499 -200h-81l-109 65q-32 -71 -114 -71q-65 0 -109 29l16 66q44 -28 89 -28q38 0 67 25q28 25 36 64l120 -72v455q0 57 -36 90q-35 32 -94 32q-98 0 -141 -79l56 -67q-38 -25 -38 -79v-156q0 -31 -20 -53q-19 -21 -48 -21h-66v67h31q18 0 18 19v131q0 65 39 92l-57 67 q19 60 79 101q65 45 147 45q92 0 154 -53q61 -53 61 -132v-537z"/>
<glyph unicode="ฐ" horiz-adv-x="516" d="M251 68q57 0 94 50q39 54 39 145q0 100 -39 146q-37 43 -117 43q-96 0 -161 -75l-36 63q84 82 197 82q83 0 128 -29l57 62h98l-102 -107q60 -57 60 -185q0 -117 -63 -190q-62 -73 -162 -73h-72l-44 186q-8 32 -35 32h-28v75h48q65 0 86 -66l39 -159h13zM440 -200h-120 q-62 0 -96 44q-27 -44 -99 -44h-60v70h64q58 0 95 44q39 -44 92 -44h41v70h83v-140z"/>
<glyph unicode="ฑ" horiz-adv-x="548" d="M504 0h-85v353q0 96 -72 96t-130 -86q-52 -77 -52 -145v-218h-85v213q0 61 33 121q33 61 33 73v12q0 29 -24 29q-26 0 -37 -31l-64 25v72l61 -30q23 32 68 32q30 0 48 -20q17 -20 17 -52q54 75 132 75q157 0 157 -175v-344z"/>
<glyph unicode="ฒ" horiz-adv-x="877" d="M833 191q0 -198 -164 -198q-89 0 -141 65v-58h-88v362q0 78 -63 90l-61 -58q-64 58 -65 58q-54 -12 -85 -64q-32 -53 -32 -132q0 -90 49 -143q40 -44 87 -44q39 0 67 11v-70q-27 -13 -75 -13q-83 0 -145 67q-68 74 -68 192q0 115 57 187q56 72 152 82l57 -58q59 58 60 58 q69 -9 110 -55q40 -45 40 -113v-200q42 -96 125 -96q54 0 77 33q21 31 21 98v319h85v-320z"/>
<glyph unicode="ณ" horiz-adv-x="830" d="M786 0h-86v63q-50 -70 -139 -70q-172 0 -172 202v138q0 58 -33 90q-32 32 -91 32q-100 0 -143 -79l56 -67q-38 -25 -38 -79v-144q0 -19 18 -19h36v-67h-68q-31 0 -51 23q-20 22 -20 56v138q0 65 40 92l-57 67q19 60 79 101q65 45 147 45q92 0 151 -52t59 -130v-145 q0 -135 113 -135q85 0 114 112v339h85v-511z"/>
<glyph unicode="ด" horiz-adv-x="563" d="M519 0h-85v309q0 64 -41 103t-108 39q-74 0 -117 -53q-45 -54 -45 -148q0 -95 44 -143q34 -38 82 -38q39 0 67 11v-70q-27 -13 -75 -13q-84 0 -140 61q-64 69 -64 192q0 117 67 193q69 79 181 79q108 0 173 -63q61 -60 61 -151v-308z"/>
<glyph unicode="ต" horiz-adv-x="578" d="M534 0h-85v362q0 78 -63 90l-70 -68q-76 68 -77 68q-54 -12 -85 -64q-32 -53 -32 -132q0 -90 49 -143q40 -44 87 -44q39 0 67 11v-70q-27 -13 -75 -13q-83 0 -145 67q-68 74 -68 192q0 115 57 187q56 72 152 82l70 -67q67 67 68 67q69 -9 110 -55q40 -45 40 -113v-357z "/>
<glyph unicode="ถ" horiz-adv-x="524" d="M480 0h-85v333q0 57 -34 90q-33 32 -92 32q-104 0 -147 -79l56 -67q-38 -25 -38 -79v-144q0 -19 18 -19h36v-67h-68q-31 0 -51 23q-20 22 -20 56v138q0 65 40 92l-57 67q19 59 81 101q67 45 149 45q92 0 152 -52t60 -130v-340z"/>
<glyph unicode="ท" horiz-adv-x="521" d="M477 0h-85v334q0 117 -109 117q-106 0 -154 -107v-344h-85v511h85v-71q58 82 167 82q87 0 134 -49t47 -141v-332z"/>
<glyph unicode="ธ" horiz-adv-x="490" d="M457 161q0 -89 -50 -129q-49 -39 -160 -39q-109 0 -160 43q-50 42 -50 132v40h81v-40q0 -108 129 -108q70 0 98 23q29 23 29 78v29q0 53 -52 56l-166 13q-54 5 -86 39q-33 34 -33 87q0 61 52 98q54 39 145 39q113 0 195 -42l-12 -74q-72 46 -173 46q-128 0 -128 -66 q0 -53 47 -57l183 -17q48 -5 79 -38q32 -34 32 -84v-29z"/>
<glyph unicode="น" horiz-adv-x="519" d="M475 0h-86v63q-50 -70 -155 -70q-87 0 -138 53q-52 54 -52 149v316h85v-302q0 -149 131 -149q41 0 79 31q39 33 51 81v339h85v-511z"/>
<glyph unicode="บ" horiz-adv-x="530" d="M486 188q0 -93 -60 -145q-59 -50 -161 -50t-161 50q-60 52 -60 145v323h85v-323q0 -59 38 -94q37 -34 98 -34t98 34q38 35 38 94v323h85v-323z"/>
<glyph unicode="ป" horiz-adv-x="530" d="M486 188q0 -93 -60 -145q-59 -50 -161 -50t-161 50q-60 52 -60 145v323h85v-323q0 -59 38 -94q37 -34 98 -34t98 34q38 35 38 94v498h85v-498z"/>
<glyph unicode="ผ" horiz-adv-x="572" d="M528 0h-73l-169 276l-169 -276h-73v428q0 35 24 59q23 24 59 24h47v-74h-20q-27 0 -27 -27v-212q0 -37 -4 -75l14 42l134 223h30l135 -225l13 -50q-4 44 -4 89v309h83v-511z"/>
<glyph unicode="ฝ" horiz-adv-x="572" d="M528 0h-73l-169 276l-169 -276h-73v428q0 35 24 59q23 24 59 24h47v-74h-20q-27 0 -27 -27v-212q0 -37 -4 -75l14 42l134 223h30l135 -225l13 -50q-4 44 -4 89v484h83v-686z"/>
<glyph unicode="พ" horiz-adv-x="610" d="M491 0h-77l-109 310l-109 -310h-77l-102 511h88l60 -350q2 -9 2 -38q3 31 6 38l114 325h36l114 -325q3 -7 6 -38q0 29 2 38l60 350h88z"/>
<glyph unicode="ฟ" horiz-adv-x="615" d="M491 0h-77l-109 310l-109 -310h-77l-102 511h88l60 -350q2 -9 2 -38q3 31 6 38l114 325h36l114 -325q3 -7 6 -38q0 29 2 38l91 525h88z"/>
<glyph unicode="ภ" horiz-adv-x="543" d="M499 0h-85v333q0 57 -36 90q-35 32 -94 32q-98 0 -141 -79l56 -67q-38 -25 -38 -79v-156q0 -31 -20 -53q-19 -21 -48 -21h-66v67h31q18 0 18 19v131q0 65 39 92l-57 67q19 60 79 101q65 45 147 45q92 0 154 -53q61 -53 61 -132v-337z"/>
<glyph unicode="ม" horiz-adv-x="520" d="M476 191q0 -93 -49 -145q-50 -53 -138 -53q-100 0 -157 72v-65h-88v511h85v-347q20 -41 62 -72t79 -31q121 0 121 131v319h85v-320z"/>
<glyph unicode="ย" horiz-adv-x="511" d="M467 203q0 -210 -203 -210q-220 0 -220 163q0 96 84 125q-84 22 -84 117q0 51 33 84q33 32 84 32q42 0 75 -11l-9 -71q-22 9 -47 9q-55 0 -55 -57q0 -31 24 -50q23 -17 54 -17h86l7 -70h-82q-39 0 -64 -23q-25 -24 -25 -63q0 -49 38 -76q36 -25 97 -25q122 0 122 132v319 h85v-308z"/>
<glyph unicode="ร" horiz-adv-x="445" d="M369 405q-65 47 -148 47q-101 0 -101 -68q0 -33 46 -55q12 -6 101 -36q146 -49 146 -143q0 -72 -48 -113q-52 -44 -149 -44q-104 0 -172 40l11 76q81 -46 149 -46q124 0 124 79q0 37 -45 61q-18 9 -100 37q-69 22 -101 48q-45 36 -45 95q0 60 48 99q49 40 126 40 q107 0 171 -45z"/>
<glyph unicode="ฤ" horiz-adv-x="524" d="M480 -200h-85v533q0 57 -34 90q-33 32 -92 32q-104 0 -147 -79l56 -67q-38 -25 -38 -79v-144q0 -19 18 -19h36v-67h-68q-31 0 -51 23q-20 22 -20 56v138q0 65 40 92l-57 67q19 59 81 101q67 45 149 45q92 0 152 -52t60 -130v-540z"/>
<glyph unicode="ล" horiz-adv-x="505" d="M461 0h-85v238h-128q-63 0 -100 -27q-36 -26 -36 -69q0 -78 86 -78q33 0 63 10l3 -71q-38 -10 -74 -10q-72 0 -117 44q-43 42 -43 105q0 75 57 120q60 47 170 47h119v31q0 113 -132 113q-96 0 -171 -73l-35 60q84 82 210 82q103 0 158 -52t55 -147v-323z"/>
<glyph unicode="ฦ" horiz-adv-x="543" d="M499 -200h-85v533q0 57 -36 90q-35 32 -94 32q-98 0 -141 -79l56 -67q-38 -25 -38 -79v-156q0 -31 -20 -53q-19 -21 -48 -21h-66v67h31q18 0 18 19v131q0 65 39 92l-57 67q19 60 79 101q65 45 147 45q92 0 154 -53q61 -53 61 -132v-537z"/>
<glyph unicode="ว" horiz-adv-x="481" d="M49 109q76 -45 149 -45q159 0 159 193q0 92 -44 144q-41 48 -106 48q-83 0 -160 -53l-18 72q89 55 193 55q98 0 158 -71q62 -73 62 -196t-65 -194q-64 -70 -171 -70t-176 48z"/>
<glyph unicode="ศ" horiz-adv-x="526" d="M480 0h-85v338q0 117 -133 117q-62 0 -97 -30q-36 -31 -36 -87v-112q20 50 84 50h81v-75h-84q-38 0 -60 -25q-21 -24 -21 -61v-115h-85v337q0 83 59 134t159 51q66 0 114 -27l49 60h91l-81 -101q45 -43 45 -117v-337z"/>
<glyph unicode="ษ" horiz-adv-x="560" d="M488 188q0 -93 -61 -145q-59 -50 -161 -50t-161 50q-61 52 -61 145v323h85v-323q0 -128 137 -128t137 128v68h-111v75h111v180h85v-180h72l-19 -75h-53v-68z"/>
<glyph unicode="ส" horiz-adv-x="519" d="M461 0h-85v238h-128q-63 0 -100 -27q-36 -26 -36 -69q0 -78 86 -78q33 0 63 10l3 -71q-38 -10 -74 -10q-72 0 -117 44q-43 42 -43 105q0 75 57 120q60 47 170 47h119v31q0 113 -132 113q-96 0 -171 -73l-35 60q84 82 210 82q72 0 123 -31l52 64h91l-91 -108 q38 -44 38 -124v-323z"/>
<glyph unicode="ห" horiz-adv-x="498" d="M488 0h-92l-75 232q-23 70 -85 85l-107 -94v-223h-85v511h85v-198l225 198h115l-177 -148q86 -33 116 -125z"/>
<glyph unicode="ฬ" horiz-adv-x="572" d="M528 0h-73l-169 276l-169 -276h-73v511h83v-313q0 -37 -4 -75l14 42l134 223h30l135 -225l13 -50q-4 44 -4 89v208q0 31 -19 49q-20 19 -52 19h-18l-11 33l98 175h92l-99 -170q92 -19 92 -126v-390z"/>
<glyph unicode="อ" horiz-adv-x="515" d="M215 225h-77q-18 0 -18 -19v-42q0 -102 131 -102q74 0 108 45q35 47 35 151q0 192 -147 192q-96 0 -170 -72l-36 62q84 82 206 82q113 0 173 -72q59 -70 59 -195q0 -262 -226 -262q-107 0 -162 48q-51 45 -51 126v50q0 38 24 61q24 21 63 21h88v-74z"/>
<glyph unicode="ฮ" horiz-adv-x="515" d="M215 225h-77q-18 0 -18 -19v-42q0 -102 131 -102q74 0 108 45q35 47 35 151q0 192 -147 192q-96 0 -170 -72l-36 62q84 82 206 82q67 0 117 -26l48 59h93l-85 -106q59 -70 59 -194q0 -262 -226 -262q-107 0 -162 48q-51 45 -51 126v50q0 38 24 61q24 21 63 21h88v-74z "/>
<glyph unicode="ฯ" horiz-adv-x="482" d="M438 0h-85v381q-37 -77 -135 -77q-83 0 -131 46q-47 45 -47 120v41h83v-34q0 -48 29 -77q30 -29 79 -29q53 0 89 38t36 90v12h82v-511z"/>
<glyph unicode="ะ" horiz-adv-x="259" d="M219 330h-113q-26 0 -45 18q-21 19 -21 46v54h85v-36q0 -15 17 -15h77v-67zM219 73h-113q-26 0 -45 18q-21 19 -21 46v54h85v-36q0 -15 17 -15h77v-67z"/>
<glyph unicode="ั" horiz-adv-x="0" d="M36 579h-238q-30 0 -51 20q-21 21 -21 52v49h85v-40q0 -15 17 -15h208v-66z"/>
<glyph unicode="า" horiz-adv-x="434" d="M390 0h-85v333q0 118 -110 118q-90 0 -154 -68l-28 59q82 80 190 80q88 0 137 -52q50 -52 50 -144v-326z"/>
<glyph unicode="ำ" horiz-adv-x="434" d="M390 0h-85v333q0 118 -110 118q-90 0 -154 -68l-28 59q82 80 190 80q88 0 137 -52q50 -52 50 -144v-326zM-1 654q0 -37 -26 -62q-25 -26 -62 -26t-62 26q-26 25 -26 62t26 62q25 26 62 26t62 -26q26 -25 26 -62zM-89 618q36 0 36 37q0 36 -36 36t-36 -36q0 -37 36 -37z "/>
<glyph unicode="ิ" horiz-adv-x="0" d="M-44 579h-391v72h391v-72z"/>
<glyph unicode="ี" horiz-adv-x="0" d="M-44 579h-391v72h312v70h79v-142z"/>
<glyph unicode="ึ" horiz-adv-x="0" d="M-169 651q-2 8 -2 15q0 33 23 56q24 23 59 23t60 -23q24 -23 24 -56q0 -36 -25 -61q-26 -26 -65 -26h-340v72h266zM-87 636q30 0 30 30t-30 30t-30 -30t30 -30z"/>
<glyph unicode="ื" horiz-adv-x="0" d="M-44 579h-391v72h211v64h67v-64h42v64h71v-136z"/>
<glyph unicode="ุ" horiz-adv-x="0" d="M-44 -251h-75v117q0 13 -12 13h-51v63h83q24 0 40 -17q15 -16 15 -39v-137z"/>
<glyph unicode="ู" horiz-adv-x="0" d="M-44 -152q0 -50 -32 -79q-33 -29 -92 -29q-55 0 -87 29q-31 28 -31 75v36h-48v62h116v-98q0 -49 50 -49q51 0 51 53v94h73v-94z"/>
<glyph unicode="ฺ" horiz-adv-x="0" d="M-48 -145q-17 -16 -40 -16t-39 16q-17 16 -17 38t17 39q16 16 39 16t40 -16q16 -16 16 -39q0 -22 -16 -38z"/>
<glyph unicode="฿" horiz-adv-x="532" d="M265 -92h-50v92h-143v607h143v94h50v-94q185 -12 185 -153q0 -113 -125 -144v-2q63 -5 101 -44q39 -39 39 -102q0 -152 -200 -161v-93zM265 350q98 12 98 95q0 84 -98 90v-185zM215 348v188h-56v-188h56zM265 73q108 11 108 97q0 91 -108 104v-201zM215 71v206h-56v-206 h56z"/>
<glyph unicode="เ" horiz-adv-x="189" d="M140 0h-85v511h85v-511z"/>
<glyph unicode="แ" horiz-adv-x="376" d="M325 0h-85v511h85v-511zM140 0h-85v511h85v-511z"/>
<glyph unicode="โ" horiz-adv-x="251" d="M180 0h-85v580q0 120 -86 161q-11 11 -11 18q71 103 194 103q90 0 163 -42l-6 -73q-75 45 -141 45q-76 0 -121 -35q38 -22 64 -71q29 -54 29 -114v-572z"/>
<glyph unicode="ใ" horiz-adv-x="234" d="M174 0h-85v555q0 57 51 114q50 56 50 81q0 51 -69 51q-68 0 -111 -69l-43 49q54 84 155 84q72 0 113 -31q37 -29 37 -75q0 -38 -49 -96t-49 -127v-536z"/>
<glyph unicode="ไ" horiz-adv-x="252" d="M190 0h-85v604q0 125 74 169h-234v61h326v-56q-81 -36 -81 -152v-626z"/>
<glyph unicode="ๅ" horiz-adv-x="434" d="M390 -200h-85v533q0 118 -110 118q-90 0 -154 -68l-28 59q82 80 190 80q88 0 137 -52q50 -52 50 -144v-526z"/>
<glyph unicode="ๆ" horiz-adv-x="498" d="M447 -200h-85v580q0 71 -46 80l-72 -56l-76 56q-57 -14 -57 -62q0 -55 56 -55q15 0 26 4l5 -55q-16 -6 -43 -6q-45 0 -76 30q-34 32 -34 82q0 103 125 124l74 -56l73 56q61 -4 97 -48q33 -41 33 -100v-574z"/>
<glyph unicode="็" horiz-adv-x="0" d="M-82 575h-75q-41 0 -68 44q-22 -44 -88 -44q-40 0 -65 26q-25 25 -25 65t28 65q30 28 87 28h99q40 0 40 33v24h77v-27q0 -38 -27 -64t-72 -26h-115q-39 0 -39 -30q0 -28 37 -28q45 0 64 25q23 -25 57 -25h85v-66z"/>
<glyph unicode="่" horiz-adv-x="0" d="M-44 767h-79v113h79v-113z"/>
<glyph unicode="้" horiz-adv-x="0" d="M34 767h-174q-46 0 -46 41v15q0 15 -17 15h-47v64h80q51 0 51 -42v-13q0 -15 17 -15h136v-65z"/>
<glyph unicode="๊" horiz-adv-x="0" d="M-76 767l-8 15q9 9 9 23q0 27 -28 30l-44 -40l-46 38q-23 -8 -23 -28q0 -7 7 -23l-9 -16h-57q-8 21 -8 47q0 29 21 51q23 24 61 28l54 -51l48 52q79 -3 79 -85q32 15 32 73q0 21 -6 45h72q4 -15 5 -40q0 -50 -35 -85q-35 -34 -84 -34h-40z"/>
<glyph unicode="๋" horiz-adv-x="0" d="M13 812l-65 2l2 -47h-77l2 47l-65 -2v54l65 -2l-2 48h77l-2 -48l65 2v-54z"/>
<glyph unicode="์" horiz-adv-x="0" d="M12 742h-67q-33 0 -33 -30v-18h-86v36q0 33 24 56q24 22 58 22h104v-66z"/>
<glyph unicode="ํ" horiz-adv-x="0" d="M-1 654q0 -37 -26 -62q-25 -26 -62 -26t-62 26q-26 25 -26 62t26 62q25 26 62 26t62 -26q26 -25 26 -62zM-89 618q36 0 36 37q0 36 -36 36t-36 -36q0 -37 36 -37z"/>
<glyph unicode="๎" horiz-adv-x="0"/>
<glyph unicode="๏" horiz-adv-x="520" d="M263 6q-40 0 -75.5 15.5t-61.5 41.5t-41.5 61.5t-15.5 75.5t15.5 75.5t41.5 61.5t61.5 41.5t75.5 15.5t75.5 -15.5t61.5 -41.5t41.5 -61.5t15.5 -75.5t-15.5 -75.5t-41.5 -61.5t-61.5 -41.5t-75.5 -15.5zM427 200q0 34 -13 64t-35 52t-52 35t-64 13t-64 -13t-52 -35 t-35 -52t-13 -64t13 -64t35 -52t52 -35t64 -13t64 13t52 35t35 52t13 64zM263 87q-24 0 -44.5 9t-35.5 24t-24 35.5t-9 44.5q0 23 9 43.5t24 36t35.5 24.5t44.5 9q23 0 43.5 -9t36 -24.5t24.5 -36t9 -43.5q0 -24 -9 -44.5t-24.5 -35.5t-36 -24t-43.5 -9zM347 200 q0 34 -25 59t-59 25q-35 0 -59.5 -25t-24.5 -59q0 -35 24.5 -59.5t59.5 -24.5q34 0 59 24.5t25 59.5z"/>
<glyph unicode="๐" horiz-adv-x="527" d="M493 199q0 -100 -66 -155q-62 -51 -163 -51q-102 0 -163 51q-67 55 -67 155t67 155q61 51 163 51q101 0 163 -51q66 -55 66 -155zM368 96q44 39 44 103t-44 103q-42 36 -104 36q-63 0 -104 -36q-45 -39 -45 -103t45 -103q41 -36 104 -36q62 0 104 36z"/>
<glyph unicode="๑" horiz-adv-x="519" d="M219 -91l8 66h32q61 0 102 49q45 53 45 145q0 75 -41 119t-113 44q-63 0 -104 -35q-41 -36 -41 -93q0 -53 30 -82q27 -26 67 -26q45 0 77 17l5 -67q-37 -20 -82 -20q-74 0 -122 45q-53 49 -53 133q0 88 63 143q62 53 161 53q108 0 171 -63q62 -62 62 -169 q0 -119 -67 -189t-180 -70h-20z"/>
<glyph unicode="๒" horiz-adv-x="585" d="M543 170q0 -69 -50 -119q-50 -51 -119 -51h-164q-76 0 -123 49q-45 47 -45 120v323h80v-323q0 -46 27 -73q26 -26 65 -26h160q36 0 62 29q27 29 27 71v76q0 72 -58 76l-57 -55l-62 55q-45 -6 -45 -54q0 -50 58 -61l-23 -60q-110 20 -110 121q0 52 32 86q31 34 85 41 l65 -64l57 64q61 -3 99 -43q39 -41 39 -108v-74z"/>
<glyph unicode="๓" horiz-adv-x="536" d="M492 0h-80v239q0 74 -59 78l-76 -90l-87 87q-76 -33 -76 -122q0 -63 37 -100q34 -35 82 -35q42 0 72 17l7 -64q-37 -17 -88 -17q-79 0 -134 56q-56 57 -56 144q0 156 156 202l87 -85l72 85q63 -5 102 -46q41 -43 41 -112v-237z"/>
<glyph unicode="๔" horiz-adv-x="531" d="M485 0h-46q-77 0 -113 32q-35 -39 -107 -39q-85 0 -135 52q-50 51 -50 137q0 97 65 155q63 56 160 56h75q88 0 88 80v19h84v-20q0 -67 -40 -107q-42 -40 -113 -40h-93q-67 0 -105 -36q-39 -37 -39 -105q0 -62 31 -94q28 -30 76 -30q42 0 70 19q-20 23 -20 65q0 50 32 80 q30 28 75 28h63l-14 -68h-35q-44 0 -44 -47q0 -70 97 -70h48z"/>
<glyph unicode="๕" horiz-adv-x="531" d="M268 402q33 0 33 34q0 13 -10 23t-23 10q-34 0 -34 -33q0 -34 34 -34zM485 0h-46q-77 0 -113 32q-35 -39 -107 -39q-85 0 -135 52q-50 51 -50 137t49 142q49 55 130 64q-24 16 -24 48q0 34 23 55q21 20 55 20t57 -21t23 -54q0 -30 -21 -43h12q84 0 84 80v19h84v-20 q0 -66 -39 -105q-40 -40 -114 -40h-100q-137 0 -137 -143q0 -62 31 -94q28 -30 76 -30q42 0 70 19q-20 23 -20 65q0 50 32 80q30 28 75 28h63l-14 -68h-35q-44 0 -44 -47q0 -70 97 -70h48z"/>
<glyph unicode="๖" horiz-adv-x="526" d="M204 180q-22 -17 -22 -48q0 -30 27 -52q28 -23 71 -23q63 0 101 42q36 39 36 100q0 63 -38 103q-40 42 -108 42q-88 0 -144 -77h-56l-50 225h79l30 -147q53 65 152 65q94 0 154 -61q60 -60 60 -150q0 -87 -52 -144q-56 -62 -152 -62q-86 0 -138 42q-51 42 -51 108 q0 51 40 80z"/>
<glyph unicode="๗" horiz-adv-x="683" d="M639 151q0 -66 -40 -108q-40 -43 -102 -43h-93v239q0 74 -59 78l-75 -93l-80 90q-76 -33 -76 -122q0 -63 37 -100q34 -35 82 -35q42 0 72 17l7 -64q-37 -17 -88 -17q-79 0 -134 56q-56 57 -56 144q0 156 156 202l80 -91l71 91q63 -5 102 -46q41 -43 41 -112v-177h14 q61 0 61 80v352h80v-341z"/>
<glyph unicode="๘" horiz-adv-x="513" d="M355 65q52 13 52 75q0 30 -21 51q-20 19 -48 21l25 56q51 -4 84 -42q33 -37 33 -88q0 -57 -41 -100q-41 -42 -92 -42l-77 76l-67 -76q-70 0 -115 35q-48 37 -48 100v91q0 71 50 120q52 51 134 51h74q90 0 90 80v19h81v-20q0 -68 -40 -108q-42 -41 -115 -41h-85 q-107 0 -107 -105v-85q0 -28 17 -47q18 -20 51 -20l80 86z"/>
<glyph unicode="๙" horiz-adv-x="534" d="M433 0h-82l-99 284q-17 48 -64 48q-35 0 -56 -35q-21 -36 -21 -96q0 -64 24 -105q21 -39 50 -39q31 0 56 20l16 -57q-33 -27 -77 -27q-61 0 -103 58q-43 59 -43 150q0 89 43 145q42 54 107 54q70 0 101 -52q13 52 73 52q43 0 67 -32l23 124h75l-40 -201h-60 q-14 46 -56 46q-36 0 -36 -41z"/>
<glyph unicode="๛" horiz-adv-x="830" d="M680 189q0 -52 -37 -72l-203 -104v239q0 27 18 37l145 74q13 7 29 7q48 0 48 -54v-127zM414 0l-264 135v260q0 37 29 52l164 84q37 19 69 19q31 0 75 -21l115 -57q24 -12 24 -36q0 -29 -33 -45l-148 -75q-31 -16 -31 -61v-255z"/>
<glyph unicode=" " horiz-adv-x="463"/>
<glyph unicode=" " horiz-adv-x="926"/>
<glyph unicode=" " horiz-adv-x="463"/>
<glyph unicode=" " horiz-adv-x="926"/>
<glyph unicode=" " horiz-adv-x="308"/>
<glyph unicode=" " horiz-adv-x="231"/>
<glyph unicode=" " horiz-adv-x="154"/>
<glyph unicode=" " horiz-adv-x="154"/>
<glyph unicode=" " horiz-adv-x="115"/>
<glyph unicode=" " horiz-adv-x="185"/>
<glyph unicode=" " horiz-adv-x="51"/>
<glyph unicode="‐" horiz-adv-x="290" d="M257 201h-224v66h224v-66z"/>
<glyph unicode="‑" horiz-adv-x="290" d="M257 201h-224v66h224v-66z"/>
<glyph unicode="‒" horiz-adv-x="290" d="M257 201h-224v66h224v-66z"/>
<glyph unicode="–" horiz-adv-x="435" d="M435 204h-435v60h435v-60z"/>
<glyph unicode="—" horiz-adv-x="870" d="M870 204h-870v60h870v-60z"/>
<glyph unicode="‘" horiz-adv-x="242" d="M142 394h-97l74 213h78z"/>
<glyph unicode="’" horiz-adv-x="242" d="M120 394h-75l54 213h98z"/>
<glyph unicode="‚" horiz-adv-x="242" d="M123 -116h-78l55 213h97z"/>
<glyph unicode="“" d="M345 394h-96l73 213h78zM181 394h-97l74 213h77z"/>
<glyph unicode="”" d="M326 394h-77l55 213h96zM161 394h-77l54 213h97z"/>
<glyph unicode="„" d="M326 -116h-77l55 213h96zM161 -116h-77l54 213h97z"/>
<glyph unicode="†" d="M280 0h-76v394h-146v61h146v152h76v-152h145v-61h-145v-394z"/>
<glyph unicode="‡" d="M425 141h-145v-141h-76v141h-146v61h146v203h-146v61h146v141h76v-141h145v-61h-145v-203h145v-61z"/>
<glyph unicode="•" horiz-adv-x="435" d="M370 304q0 -64 -44 -109q-45 -44 -108 -44t-107 44q-45 45 -45 109q0 63 45 107q44 44 107 44t108 -44q44 -44 44 -107z"/>
<glyph unicode="…" horiz-adv-x="870" d="M773 0h-97v97h97v-97zM484 0h-98v97h98v-97zM194 0h-97v97h97v-97z"/>
<glyph unicode=" " horiz-adv-x="185"/>
<glyph unicode="‰" horiz-adv-x="870" d="M131 -19h-63l377 645h62zM133 331q54 0 54 113t-54 113t-54 -113t54 -113zM263 444q0 -174 -130 -174t-130 174t130 174t130 -174zM442 50q54 0 54 113t-54 113t-54 -113t54 -113zM572 163q0 -174 -130 -174t-130 174t130 174t130 -174zM737 50q54 0 54 113t-54 113 t-54 -113t54 -113zM867 163q0 -174 -130 -174t-130 174t130 174t130 -174z"/>
<glyph unicode="‹" horiz-adv-x="242" d="M218 58h-76l-125 176l125 176h76l-113 -176z"/>
<glyph unicode="›" horiz-adv-x="242" d="M100 58h-77l114 176l-114 176h77l124 -176z"/>
<glyph unicode="⁄" horiz-adv-x="145" d="M-84 -19h-63l377 645h62z"/>
<glyph unicode=" " horiz-adv-x="231"/>
<glyph unicode="€" d="M494 9q-46 -19 -121 -19q-111 0 -186 61q-77 61 -99 169h-83l12 47h65q-2 24 -2 37q0 12 2 36h-77l12 47h72q23 105 99 168q77 63 185 63q76 0 133 -23l-17 -72q-43 23 -108 23q-152 0 -197 -159h277l-11 -47h-276q-2 -12 -2 -36q0 -25 2 -37h260l-10 -47h-240 q45 -157 196 -157q64 0 109 21z"/>
<glyph unicode="™" horiz-adv-x="861" d="M814 245h-66v277h-2l-101 -277h-54l-102 277h-2v-277h-66v362h103l95 -244l93 244h102v-362zM224 245h-66v301h-111v61h289v-61h-112v-301z"/>
<glyph unicode="∂" horiz-adv-x="445" d="M309 114q29 57 29 130q-54 74 -128 74q-55 0 -87 -42q-30 -38 -30 -93q0 -56 29 -96q32 -45 86 -45q66 0 101 72zM343 345q0 85 -32 148q-41 79 -119 79q-45 0 -99 -40l-36 43q58 52 133 52q116 0 173 -103q45 -82 45 -209q0 -325 -202 -325q-80 0 -130 59 q-47 55 -47 136q0 80 46 132q48 54 127 54q84 0 140 -66z"/>
<glyph unicode="∆" horiz-adv-x="586" d="M479 63l-189 483l-186 -483h375zM576 0h-565l243 619h72z"/>
<glyph unicode="∏" horiz-adv-x="626" d="M566 -186h-68v807h-371v-807h-68v870h507v-870z"/>
<glyph unicode="∑" horiz-adv-x="535" d="M512 -186h-490v55l280 383l-268 376v56h468v-63h-380l262 -369l-278 -376h406v-62z"/>
<glyph unicode="−" horiz-adv-x="522" d="M481 182h-440v76h440v-76z"/>
<glyph unicode="√" horiz-adv-x="438" d="M264 -186h-66l-141 290l-40 -19l-25 52l98 46l131 -276l160 777h66z"/>
<glyph unicode="∞" horiz-adv-x="660" d="M165 144q54 0 128 74q-79 79 -130 79q-32 0 -51 -24q-19 -22 -19 -54q0 -34 19 -54q20 -21 53 -21zM496 298q-48 0 -128 -80q81 -74 131 -74q32 0 51 22q17 21 17 53q0 79 -71 79zM496 85q-76 0 -165 95q-73 -62 -75 -63q-45 -31 -92 -31q-57 0 -92 38q-35 37 -35 95 t33 96q35 40 93 40q63 0 168 -99q101 101 164 101q58 0 94 -39q35 -38 35 -96t-35 -97q-36 -40 -93 -40z"/>
<glyph unicode="∫" horiz-adv-x="482" d="M255 38q0 -100 -12 -141q-23 -82 -98 -82q-22 0 -39 11q-21 12 -21 34q0 12 10 22q10 9 22 9q17 0 29 -18q13 -18 17 -18q24 0 24 131v450q0 124 7 156q21 92 103 92q68 0 68 -49q0 -33 -36 -33q-16 0 -30 19q-14 18 -19 18q-23 0 -26 -56l1 -100v-445z"/>
<glyph unicode="≈" horiz-adv-x="516" d="M487 204q-10 -127 -112 -127q-39 0 -124 32q-86 31 -113 31q-55 0 -65 -68h-45q16 129 112 129q40 0 122 -31q83 -31 116 -31q52 0 66 65h43zM488 361q-16 -127 -113 -127q-39 0 -124 31q-84 31 -112 31q-56 0 -66 -67h-44q4 52 31 87q30 42 81 42q38 0 122 -31 q83 -31 116 -31q51 0 66 65h43z"/>
<glyph unicode="≠" horiz-adv-x="522" d="M481 99h-250l-66 -127l-54 28l51 99h-123v63h155l59 110h-214v62h247l67 129l54 -28l-54 -101h128v-62h-160l-58 -110h218v-63z"/>
<glyph unicode="≤" horiz-adv-x="522" d="M483 -26h-442v63h442v-63zM483 71l-442 160v66l442 162v-67l-355 -128l355 -126v-67z"/>
<glyph unicode="≥" horiz-adv-x="522" d="M483 -26h-442v63h442v-63zM483 231l-442 -160v67l355 126l-355 128v67l442 -162v-66z"/>
<glyph unicode="◊" horiz-adv-x="516" d="M258 36l114 274l-114 274l-114 -274zM289 -30h-63l-149 340l149 340h63l149 -340z"/>
<glyph unicode="" horiz-adv-x="445" d="M0 445h445v-445h-445v445z"/>
<glyph unicode="" horiz-adv-x="516" d="M251 68q57 0 94 50q39 54 39 145q0 100 -39 146q-37 43 -117 43q-96 0 -161 -75l-36 63q84 82 197 82q83 0 128 -29l57 62h98l-102 -107q60 -57 60 -185q0 -117 -63 -190q-62 -73 -162 -73h-72l-44 186q-8 32 -35 32h-28v75h48q65 0 86 -66l39 -159h13z"/>
<glyph unicode="" horiz-adv-x="0" d="M-161 579h-328v72h328v-72z"/>
<glyph unicode="" horiz-adv-x="0" d="M-161 579h-328v72h248v70h80v-142z"/>
<glyph unicode="" horiz-adv-x="0" d="M-298 651q-2 8 -2 15q0 33 23 56q24 23 59 23t60 -23q24 -23 24 -56q0 -36 -25 -61q-26 -26 -65 -26h-265v72h191zM-216 636q30 0 30 30t-30 30t-30 -30t30 -30z"/>
<glyph unicode="" horiz-adv-x="0" d="M-161 579h-328v72h148v64h67v-64h42v64h71v-136z"/>
<glyph unicode="" horiz-adv-x="0" d="M-202 579h-70v143h70v-143z"/>
<glyph unicode="" horiz-adv-x="0" d="M-85 579h-195q-20 0 -35 13t-15 31v17q0 15 -17 15h-47v64h77q54 0 54 -46v-14q0 -15 17 -15h161v-65z"/>
<glyph unicode="" horiz-adv-x="0" d="M-229 580l-8 15q9 9 9 23q0 27 -28 30l-53 -42l-52 40q-23 -8 -23 -28q0 -7 7 -23l-9 -16h-57q-8 21 -8 47q0 29 21 51q23 24 61 28l60 -50l57 51q79 -3 79 -85q32 15 32 73q0 21 -6 45h72q4 -15 5 -40q0 -50 -35 -85q-35 -34 -84 -34h-40z"/>
<glyph unicode="" horiz-adv-x="0" d="M-154 627l-71 2l2 -50h-87l2 50l-71 -2v57l71 -2l-2 50h87l-2 -50l71 2v-57z"/>
<glyph unicode="" horiz-adv-x="0" d="M-163 639h-79q-33 0 -33 -30v-30h-86v48q0 33 24 56q24 22 58 22h116v-66z"/>
<glyph unicode="" horiz-adv-x="0" d="M-45 579h-79v140h79v-140z"/>
<glyph unicode="" horiz-adv-x="0" d="M35 579h-199q-46 0 -46 41v20q0 15 -17 15h-47v64h80q51 0 51 -42v-18q0 -15 17 -15h161v-65z"/>
<glyph unicode="" horiz-adv-x="0" d="M-181 580l-8 15q9 9 9 23q0 27 -28 30l-53 -42l-52 40q-23 -8 -23 -28q0 -7 7 -23l-9 -16h-57q-8 21 -8 47q0 29 21 51q23 24 61 28l60 -49l57 50q79 -3 79 -85q32 15 32 73q0 21 -6 45h72q4 -15 5 -40q0 -50 -35 -85q-35 -34 -84 -34h-40z"/>
<glyph unicode="" horiz-adv-x="0" d="M30 627l-71 2l2 -50h-87l2 50l-71 -2v57l71 -2l-2 50h87l-2 -50l71 2v-57z"/>
<glyph unicode="" horiz-adv-x="0" d="M-14 639h-79q-33 0 -33 -30v-30h-86v48q0 33 24 56q24 22 58 22h116v-66z"/>
<glyph unicode="" horiz-adv-x="827" d="M783 173q0 -181 -197 -181q-198 0 -198 189v152q0 122 -120 122q-104 0 -147 -79l56 -67q-38 -25 -38 -79v-144q0 -19 18 -19h36v-67h-68q-31 0 -51 23q-20 22 -20 56v138q0 65 40 92l-57 67q19 59 81 101q67 45 149 45q91 0 149 -52q57 -52 57 -130v-165 q0 -115 114 -115q111 0 111 107v344h85v-338z"/>
<glyph unicode="" horiz-adv-x="0" d="M11 579h-306q-30 0 -51 20q-21 21 -21 52v49h85v-40q0 -15 17 -15h276v-66z"/>
<glyph unicode="" horiz-adv-x="0" d="M-147 654q0 -37 -26 -62q-25 -26 -62 -26t-62 26q-26 25 -26 62t26 62q25 26 62 26t62 -26q26 -25 26 -62zM-235 618q36 0 36 37q0 36 -36 36t-36 -36q0 -37 36 -37z"/>
<glyph unicode="" horiz-adv-x="0" d="M-168 575h-75q-41 0 -68 44q-22 -44 -88 -44q-40 0 -65 26q-25 25 -25 65t28 65q30 28 87 28h99q40 0 40 33v24h77v-27q0 -38 -27 -64t-72 -26h-115q-39 0 -39 -30q0 -28 37 -28q45 0 64 25q23 -25 57 -25h85v-66z"/>
<glyph unicode="" horiz-adv-x="0" d="M-163 767h-75v105h75v-105z"/>
<glyph unicode="" horiz-adv-x="0" d="M-67 767h-174q-46 0 -46 41v15q0 15 -17 15h-47v64h80q51 0 51 -42v-13q0 -15 17 -15h136v-65z"/>
<glyph unicode="" horiz-adv-x="0" d="M-160 767l-8 15q9 9 9 23q0 27 -28 30l-44 -40l-46 38q-23 -8 -23 -28q0 -7 7 -23l-9 -16h-57q-8 21 -8 47q0 29 21 51q23 24 61 28l54 -51l48 52q79 -3 79 -85q32 15 32 73q0 21 -6 45h72q4 -15 5 -40q0 -50 -35 -85q-35 -34 -84 -34h-40z"/>
<glyph unicode="" horiz-adv-x="0" d="M-105 812l-65 2l2 -47h-77l2 47l-65 -2v54l65 -2l-2 48h77l-2 -48l65 2v-54z"/>
<glyph unicode="" horiz-adv-x="0" d="M-119 742h-59q-33 0 -33 -30v-18h-86v36q0 33 24 56q24 22 58 22h96v-66z"/>
<glyph unicode="" horiz-adv-x="0" d="M-44 -451h-75v117q0 13 -12 13h-51v63h83q24 0 40 -17q15 -16 15 -39v-137z"/>
<glyph unicode="" horiz-adv-x="0" d="M-44 -352q0 -50 -32 -79q-33 -29 -92 -29q-55 0 -87 29q-31 28 -31 75v36h-48v62h116v-98q0 -49 50 -49q51 0 51 53v94h73v-94z"/>
<glyph unicode="" horiz-adv-x="0" d="M-54 -349q-17 -16 -40 -16t-39 16q-17 16 -17 38t17 39q16 16 39 16t40 -16q16 -16 16 -39q0 -22 -16 -38z"/>
<glyph unicode="" horiz-adv-x="543" d="M499 -200h-104q-54 50 -119 50q-75 0 -136 -50l-21 65q62 55 147 55q81 0 148 -59v472q0 57 -36 90q-35 32 -94 32q-98 0 -141 -79l56 -67q-38 -25 -38 -79v-156q0 -31 -20 -53q-19 -21 -48 -21h-66v67h31q18 0 18 19v131q0 65 39 92l-57 67q19 60 79 101q65 45 147 45 q92 0 154 -53q61 -53 61 -132v-537z"/>
<glyph unicode="" horiz-adv-x="543" d="M499 -200h-81l-109 65q-32 -71 -114 -71q-65 0 -109 29l16 66q44 -28 89 -28q38 0 67 25q28 25 36 64l120 -72v455q0 57 -36 90q-35 32 -94 32q-98 0 -141 -79l56 -67q-38 -25 -38 -79v-156q0 -31 -20 -53q-19 -21 -48 -21h-66v67h31q18 0 18 19v131q0 65 39 92l-57 67 q19 60 79 101q65 45 147 45q92 0 154 -53q61 -53 61 -132v-537z"/>
<glyph unicode="" horiz-adv-x="572" d="M528 0h-73l-169 249l-169 -249h-73v511h83v-323q0 -37 -4 -75l14 42l134 186h30l135 -188l13 -50q-4 44 -4 89v125q0 68 -68 68h-18l-11 33l107 150h85l-101 -145q89 -18 89 -126v-297z"/>
<glyph unicode="" horiz-adv-x="830" d="M680 189q0 -52 -37 -72l-203 -104v239q0 27 18 37l145 74q13 7 29 7q48 0 48 -54v-127zM414 0l-264 135v260q0 37 29 52l164 84q37 19 69 19q31 0 75 -21l115 -57q24 -12 24 -36q0 -29 -33 -45l-148 -75q-31 -16 -31 -61v-255z"/>
<glyph horiz-adv-x="434" d="M390 0h-85v333q0 118 -110 118q-90 0 -154 -68l-28 59q82 80 190 80q88 0 137 -52q50 -52 50 -144v-326zM-147 654q0 -37 -26 -62q-25 -26 -62 -26t-62 26q-26 25 -26 62t26 62q25 26 62 26t62 -26q26 -25 26 -62zM-235 618q36 0 36 37q0 36 -36 36t-36 -36q0 -37 36 -37 z"/>
<glyph horiz-adv-x="0"/>
</font>
</defs>
</svg>
